<svg width="112" height="30" viewBox="0 0 112 30" fill="none" xmlns="http://www.w3.org/2000/svg">
<path d="M0 29.7917V0.208333H5.72693V24.75H20.7497V29.7917H0Z" fill="black"/>
<path d="M36.161 30C34.003 30 32.0387 29.5833 30.268 28.75C28.5251 27.9167 27.0173 26.7917 25.7446 25.375C24.4996 23.9306 23.5313 22.3194 22.8396 20.5417C22.148 18.7361 21.8021 16.8889 21.8021 15C21.8021 13.0278 22.1618 11.1528 22.8811 9.375C23.6281 7.56945 24.6379 5.97222 25.9106 4.58333C27.2109 3.16667 28.7326 2.05556 30.4755 1.25C32.2462 0.416666 34.1828 0 36.2855 0C38.4158 0 40.3524 0.430556 42.0954 1.29167C43.866 2.15278 45.3739 3.30556 46.6188 4.75C47.8638 6.19445 48.8322 7.80556 49.5238 9.58333C50.2155 11.3611 50.5613 13.1944 50.5613 15.0833C50.5613 17.0278 50.2016 18.9028 49.4823 20.7083C48.763 22.4861 47.7532 24.0833 46.4528 25.5C45.1802 26.8889 43.6586 27.9861 41.8879 28.7917C40.1449 29.5972 38.2359 30 36.161 30ZM27.6121 15C27.6121 16.2778 27.8057 17.5139 28.1931 18.7083C28.5804 19.9028 29.1337 20.9722 29.853 21.9167C30.6 22.8333 31.4992 23.5694 32.5505 24.125C33.6295 24.6528 34.8468 24.9167 36.2025 24.9167C37.5858 24.9167 38.8169 24.6389 39.8959 24.0833C40.9749 23.5 41.8741 22.7361 42.5934 21.7917C43.3127 20.8194 43.8522 19.75 44.2119 18.5833C44.5992 17.3889 44.7929 16.1944 44.7929 15C44.7929 13.7222 44.5854 12.5 44.1704 11.3333C43.783 10.1389 43.2159 9.08333 42.4689 8.16667C41.7496 7.22222 40.8504 6.48611 39.7714 5.95833C38.7201 5.40278 37.5305 5.125 36.2025 5.125C34.7915 5.125 33.5465 5.41667 32.4675 6C31.4162 6.55556 30.5309 7.30556 29.8116 8.25C29.0922 9.19445 28.5389 10.25 28.1516 11.4167C27.7919 12.5833 27.6121 13.7778 27.6121 15Z" fill="black"/>
<path d="M67.1968 30C65.2878 30 63.4756 29.6111 61.7603 28.8333C60.0727 28.0556 58.5787 26.9861 57.2784 25.625C56.0057 24.2361 55.0097 22.625 54.2904 20.7917C53.5711 18.9583 53.2114 16.9722 53.2114 14.8333C53.2114 12.8056 53.5711 10.9028 54.2904 9.125C55.0097 7.31944 56.0196 5.73611 57.3199 4.375C58.6202 3.01389 60.1418 1.94444 61.8848 1.16667C63.6278 0.388889 65.5229 0 67.5702 0C70.3369 0 72.7024 0.597222 74.6667 1.79167C76.6586 2.95833 78.1526 4.51389 79.1486 6.45833L74.8742 9.625C74.1272 8.15278 73.0759 7.02778 71.7202 6.25C70.3922 5.47222 68.9397 5.08333 67.3627 5.08333C66.1178 5.08333 64.9834 5.34722 63.9598 5.875C62.9361 6.40278 62.0508 7.125 61.3038 8.04167C60.5568 8.95833 59.9758 10.0139 59.5608 11.2083C59.1735 12.4028 58.9799 13.6667 58.9799 15C58.9799 16.4167 59.1874 17.7222 59.6023 18.9167C60.045 20.1111 60.6537 21.1528 61.4283 22.0417C62.2307 22.9306 63.1575 23.6389 64.2088 24.1667C65.2601 24.6667 66.4221 24.9167 67.6947 24.9167C69.1887 24.9167 70.6135 24.5278 71.9692 23.75C73.3525 22.9722 74.639 21.8333 75.8287 20.3333V26C73.3663 28.6667 70.489 30 67.1968 30ZM75.4137 18.7917H69.4792V14.5833H80.1446V29.7917H75.4137V18.7917Z" fill="black"/>
<path d="M97.5997 30C95.4417 30 93.4774 29.5833 91.7067 28.75C89.9638 27.9167 88.4559 26.7917 87.1833 25.375C85.9383 23.9306 84.97 22.3194 84.2783 20.5417C83.5867 18.7361 83.2408 16.8889 83.2408 15C83.2408 13.0278 83.6005 11.1528 84.3198 9.375C85.0668 7.56945 86.0766 5.97222 87.3493 4.58333C88.6496 3.16667 90.1713 2.05556 91.9142 1.25C93.6849 0.416666 95.6215 0 97.7242 0C99.8545 0 101.791 0.430556 103.534 1.29167C105.305 2.15278 106.813 3.30556 108.058 4.75C109.303 6.19445 110.271 7.80556 110.963 9.58333C111.654 11.3611 112 13.1944 112 15.0833C112 17.0278 111.64 18.9028 110.921 20.7083C110.202 22.4861 109.192 24.0833 107.892 25.5C106.619 26.8889 105.097 27.9861 103.327 28.7917C101.584 29.5972 99.6746 30 97.5997 30ZM89.0508 15C89.0508 16.2778 89.2444 17.5139 89.6318 18.7083C90.0191 19.9028 90.5724 20.9722 91.2917 21.9167C92.0387 22.8333 92.9379 23.5694 93.9892 24.125C95.0682 24.6528 96.2855 24.9167 97.6412 24.9167C99.0245 24.9167 100.256 24.6389 101.335 24.0833C102.414 23.5 103.313 22.7361 104.032 21.7917C104.751 20.8194 105.291 19.75 105.651 18.5833C106.038 17.3889 106.232 16.1944 106.232 15C106.232 13.7222 106.024 12.5 105.609 11.3333C105.222 10.1389 104.655 9.08333 103.908 8.16667C103.188 7.22222 102.289 6.48611 101.21 5.95833C100.159 5.40278 98.9692 5.125 97.6412 5.125C96.2302 5.125 94.9852 5.41667 93.9062 6C92.8549 6.55556 91.9696 7.30556 91.2503 8.25C90.5309 9.19445 89.9776 10.25 89.5903 11.4167C89.2306 12.5833 89.0508 13.7778 89.0508 15Z" fill="black"/>
</svg>
