<svg width="220" height="102" viewBox="0 0 220 102" fill="none" xmlns="http://www.w3.org/2000/svg">
<g clip-path="url(#clip0_37_166)">
<path d="M219.398 70.3788C219.398 54.7071 170.419 42.0027 110 42.0027C49.5812 42.0027 0.602171 54.7071 0.602172 70.3788C0.602172 86.0505 49.5812 98.7549 110 98.7549C170.419 98.7549 219.398 86.0505 219.398 70.3788Z" stroke="black" stroke-width="2" stroke-miterlimit="10"/>
<path d="M219.398 50.6265C219.398 34.9548 170.419 22.2504 110 22.2504C49.5812 22.2504 0.602171 34.9549 0.602172 50.6266C0.602172 66.2983 49.5812 79.0027 110 79.0027C170.419 79.0027 219.398 66.2982 219.398 50.6265Z" stroke="black" stroke-width="2" stroke-miterlimit="10"/>
<path d="M219.398 30.8743C219.398 15.2026 170.419 2.49818 110 2.49818C49.5812 2.49818 0.602171 15.2026 0.602172 30.8743C0.602172 46.546 49.5812 59.2504 110 59.2504C170.419 59.2504 219.398 46.546 219.398 30.8743Z" stroke="black" stroke-width="2" stroke-miterlimit="10"/>
</g>
<defs>
<clipPath id="clip0_37_166">
<rect width="102" height="220" fill="white" transform="translate(0 102) rotate(-90)"/>
</clipPath>
</defs>
</svg>
