<svg width="205" height="206" viewBox="0 0 205 206" fill="none" xmlns="http://www.w3.org/2000/svg">
<g style="mix-blend-mode:multiply">
<path d="M102.506 0.945871C82.4178 0.943562 62.7802 6.92731 46.0765 18.1404C29.3727 29.3535 16.3531 45.2923 8.66417 63.9411C0.97521 82.5899 -1.03776 103.111 2.87982 122.91C6.79739 142.708 16.4696 160.895 30.6732 175.169C44.8768 189.444 62.9738 199.165 82.6757 203.104C102.378 207.043 122.799 205.022 141.359 197.298C159.918 189.574 175.781 176.492 186.941 159.709C198.102 142.925 204.059 123.192 204.059 103.006C204.031 75.9484 193.323 50.007 174.285 30.8734C155.246 11.7398 129.432 0.976783 102.506 0.945871ZM102.506 206C82.2316 206 62.4127 199.959 45.5555 188.64C28.6982 177.321 15.5598 161.233 7.80173 142.41C0.0436472 123.588 -1.98564 102.876 1.97052 82.8944C5.92667 62.9129 15.6906 44.5591 30.0274 30.1539C44.3643 15.7487 62.6301 5.93932 82.5151 1.96613C102.4 -2.00705 123.011 0.0344711 141.741 7.83253C160.471 15.6306 176.48 28.8349 187.742 45.7757C199.004 62.7164 205.014 82.6327 205.012 103.006C204.978 130.313 194.167 156.492 174.95 175.8C155.734 195.108 129.681 205.969 102.506 206Z" fill="black"/>
<path d="M102.506 18.6604C85.9049 18.6604 69.6767 23.6072 55.8735 32.8752C42.0703 42.1432 31.312 55.3161 24.9591 70.7282C18.6062 86.1403 16.944 103.099 20.1827 119.461C23.4214 135.822 31.4155 150.851 43.1542 162.647C54.8928 174.443 69.8488 182.476 86.1308 185.731C102.413 188.985 119.289 187.315 134.627 180.931C149.964 174.547 163.073 163.736 172.296 149.866C181.519 135.995 186.442 119.688 186.442 103.006C186.417 80.6436 177.566 59.2044 161.83 43.3919C146.095 27.5794 124.76 18.6851 102.506 18.6604ZM102.506 188.297C85.7279 188.297 69.3268 183.298 55.3764 173.931C41.4261 164.564 30.5531 151.251 24.1324 135.674C17.7118 120.098 16.0319 102.958 19.3051 86.4221C22.5783 69.8863 30.6576 54.6972 42.5215 42.7755C54.3853 30.8538 69.5007 22.7351 85.9562 19.4459C102.412 16.1567 119.468 17.8448 134.969 24.2968C150.47 30.7488 163.719 41.6748 173.04 55.6932C182.361 69.7116 187.337 86.1928 187.337 103.053C187.297 125.648 178.346 147.307 162.446 163.285C146.546 179.263 124.992 188.257 102.506 188.297Z" fill="black"/>
<path d="M102.506 36.3632C89.3887 36.3609 76.5654 40.2675 65.6578 47.5889C54.7501 54.9102 46.248 65.3176 41.2267 77.4947C36.2054 89.6719 34.8904 103.072 37.448 116C40.0057 128.928 46.321 140.804 55.5954 150.125C64.8699 159.446 76.6868 165.795 89.5517 168.367C102.417 170.939 115.752 169.62 127.871 164.577C139.99 159.533 150.348 150.991 157.636 140.032C164.923 129.072 168.813 116.187 168.813 103.006C168.795 85.3388 161.803 68.4006 149.373 55.907C136.942 43.4135 120.087 36.3849 102.506 36.3632ZM102.506 170.583C89.203 170.58 76.1996 166.614 65.14 159.185C54.0803 151.757 45.4612 141.199 40.3726 128.848C35.2839 116.497 33.9543 102.907 36.5518 89.7968C39.1493 76.6864 45.5573 64.6444 54.9654 55.1936C64.3736 45.7429 76.3593 39.3078 89.407 36.7021C102.455 34.0965 115.978 35.4373 128.268 40.555C140.557 45.6728 151.06 54.3376 158.449 65.4537C165.838 76.5699 169.78 89.6381 169.778 103.006C169.756 120.926 162.661 138.105 150.049 150.774C137.437 163.443 120.339 170.567 102.506 170.583Z" fill="black"/>
<path d="M102.506 54.0778C92.8758 54.0778 83.462 56.9474 75.4549 62.3236C67.4478 67.6999 61.207 75.3414 57.5217 84.2819C53.8364 93.2223 52.8722 103.06 54.7509 112.551C56.6297 122.042 61.267 130.76 68.0765 137.603C74.886 144.446 83.5618 149.106 93.0069 150.994C102.452 152.882 112.242 151.913 121.139 148.209C130.036 144.506 137.64 138.235 142.991 130.189C148.341 122.143 151.196 112.683 151.196 103.006C151.181 90.0341 146.046 77.598 136.918 68.4255C127.79 59.2531 115.415 54.0932 102.506 54.0778ZM102.506 152.88C92.6864 152.882 83.0867 149.958 74.9211 144.477C66.7555 138.997 60.3908 131.206 56.632 122.09C52.8731 112.974 51.889 102.943 53.8042 93.2648C55.7193 83.5869 60.4476 74.697 67.3911 67.7197C74.3345 60.7424 83.1812 55.991 92.8122 54.0665C102.443 52.142 112.426 53.1309 121.497 56.9081C130.569 60.6853 138.322 67.081 143.776 75.2865C149.23 83.4919 152.14 93.1384 152.138 103.006C152.122 116.228 146.888 128.905 137.584 138.255C128.279 147.605 115.664 152.864 102.506 152.88Z" fill="black"/>
<path d="M102.506 71.7806C96.3596 71.7783 90.3507 73.6077 85.2391 77.0374C80.1276 80.467 76.143 85.3429 73.7893 91.0484C71.4356 96.7538 70.8186 103.033 72.0163 109.09C73.214 115.148 76.1725 120.713 80.5178 125.081C84.863 129.449 90.3998 132.424 96.4278 133.63C102.456 134.836 108.704 134.218 114.383 131.855C120.062 129.492 124.915 125.49 128.33 120.355C131.745 115.22 133.568 109.182 133.568 103.006C133.562 94.7283 130.288 86.7914 124.464 80.9372C118.64 75.083 110.743 71.7899 102.506 71.7806ZM102.506 135.165C96.1734 135.165 89.9832 133.278 84.7181 129.743C79.4531 126.207 75.3496 121.182 72.9269 115.303C70.5041 109.424 69.8707 102.954 71.107 96.7136C72.3432 90.4727 75.3935 84.7404 79.872 80.2417C84.3506 75.7429 90.0562 72.6798 96.2672 71.4398C102.478 70.1998 108.916 70.8386 114.766 73.2753C120.615 75.7121 125.615 79.8373 129.131 85.1294C132.647 90.4214 134.523 96.6425 134.521 103.006C134.508 111.533 131.131 119.708 125.13 125.736C119.128 131.765 110.992 135.156 102.506 135.165Z" fill="black"/>
<path d="M102.506 89.4951C99.8467 89.4951 97.2472 90.2875 95.0362 91.7721C92.8252 93.2567 91.1019 95.3668 90.0842 97.8355C89.0666 100.304 88.8004 103.021 89.3191 105.642C89.8379 108.262 91.1184 110.67 92.9988 112.559C94.8791 114.449 97.2748 115.736 99.8829 116.257C102.491 116.778 105.194 116.511 107.651 115.488C110.108 114.465 112.208 112.734 113.685 110.512C115.162 108.29 115.951 105.678 115.951 103.006C115.948 99.4235 114.53 95.9888 112.01 93.4558C109.489 90.9227 106.071 89.4982 102.506 89.4951Z" fill="black"/>
</g>
</svg>
