<svg width="66" height="66" viewBox="0 0 66 66" fill="none" xmlns="http://www.w3.org/2000/svg">
<path d="M50.9209 49.0148L58.4262 51.6466L61.9342 45.5262L55.8157 40.4462C56.7203 37.692 57.1008 34.7925 56.9374 31.898L64.096 28.4502L62.2808 21.6769L54.388 22.4114C53.0764 19.8238 51.2996 17.5001 49.1465 15.5565V15.5565L51.7571 8.04871L45.6387 4.56008L40.5604 10.6805C37.8061 9.78061 34.9072 9.40687 32.0149 9.57882V9.57882L28.5682 2.39753L21.797 4.21326L22.5312 12.129C19.9431 13.4293 17.6249 15.2084 15.699 17.3722L8.19368 14.7404L4.68569 20.8608L10.8042 25.9204C9.89936 28.6816 9.51893 31.5878 9.68247 34.489L2.58508 37.8348L4.40013 44.5877L12.2929 43.8737C13.6066 46.4539 15.3833 48.7706 17.5344 50.7082V50.7082L14.924 58.2363L21.0424 61.7454L26.1207 55.6249C28.875 56.5248 31.7739 56.8985 34.6662 56.7266L38.113 63.9079L44.8841 62.0922L44.1498 54.1764C46.7378 52.8761 49.0562 51.097 50.9821 48.9332L50.9209 49.0148ZM26.1003 45.771C23.6154 44.3386 21.6108 42.2012 20.3402 39.6292C19.0696 37.0571 18.5901 34.1659 18.9621 31.3212C19.3342 28.4765 20.5411 25.8061 22.4304 23.6476C24.3197 21.4891 26.8065 19.9395 29.5762 19.1947C32.3459 18.45 35.2742 18.5436 37.9907 19.4637C40.7073 20.3837 43.0901 22.089 44.8378 24.3637C46.5855 26.6385 47.6196 29.3806 47.8094 32.2432C47.9991 35.1059 47.336 37.9606 45.9038 40.4462C43.9835 43.7792 40.8182 46.2126 37.1044 47.2112C33.3906 48.2097 29.4323 47.6917 26.1003 45.771Z" stroke="black" stroke-width="3" stroke-miterlimit="10"/>
</svg>
