<svg width="690" height="501" viewBox="0 0 690 501" fill="none" xmlns="http://www.w3.org/2000/svg">
<path d="M99.0172 51.6565V260.71C99.0172 265.71 101.003 270.505 104.537 274.04C108.071 277.575 112.864 279.561 117.862 279.561H376.571C381.569 279.561 386.363 277.575 389.897 274.04C393.431 270.505 395.416 265.71 395.416 260.71V51.6565C395.416 46.6569 393.431 41.8621 389.897 38.3268C386.363 34.7916 381.569 32.8055 376.571 32.8055H117.862C112.864 32.8055 108.071 34.7916 104.537 38.3268C101.003 41.8621 99.0172 46.6569 99.0172 51.6565V51.6565ZM376.755 269.952H117.556C115.706 269.952 113.932 269.217 112.624 267.908C111.316 266.6 110.581 264.825 110.581 262.975V49.4531C110.581 47.6026 111.316 45.8279 112.624 44.5194C113.932 43.2109 115.706 42.4758 117.556 42.4758H376.755C378.605 42.4758 380.379 43.2109 381.687 44.5194C382.995 45.8279 383.73 47.6026 383.73 49.4531V262.914C383.73 264.764 382.995 266.539 381.687 267.847C380.379 269.156 378.605 269.891 376.755 269.891V269.952Z" fill="black"/>
<path d="M571.118 392.504C562.683 392.504 554.437 395.006 547.423 399.694C540.41 404.383 534.944 411.047 531.717 418.843C528.49 426.639 527.646 435.217 529.293 443.493C530.94 451.769 535.004 459.37 540.97 465.335C546.936 471.3 554.537 475.362 562.811 477.005C571.085 478.649 579.66 477.801 587.452 474.569C595.244 471.338 601.903 465.867 606.587 458.849C611.27 451.831 613.768 443.581 613.764 435.143C613.767 429.541 612.665 423.993 610.523 418.818C608.38 413.642 605.239 408.939 601.278 404.979C597.317 401.019 592.615 397.879 587.44 395.738C582.264 393.597 576.718 392.498 571.118 392.504V392.504ZM571.118 467.193C564.781 467.193 558.586 465.314 553.317 461.792C548.048 458.27 543.942 453.264 541.517 447.408C539.092 441.551 538.457 435.107 539.693 428.89C540.93 422.673 543.981 416.962 548.462 412.479C552.943 407.997 558.652 404.944 564.867 403.708C571.083 402.471 577.525 403.106 583.38 405.532C589.234 407.958 594.238 412.066 597.759 417.336C601.279 422.607 603.158 428.804 603.158 435.143C603.158 443.643 599.783 451.795 593.774 457.806C587.765 463.817 579.616 467.193 571.118 467.193V467.193Z" fill="#D24F30"/>
<path d="M574.402 150.563V421.902C574.402 423.56 574.075 425.203 573.441 426.735C572.806 428.267 571.876 429.659 570.704 430.832C569.532 432.004 568.14 432.935 566.609 433.569C565.077 434.204 563.435 434.531 561.777 434.531H148.148C144.8 434.531 141.589 433.2 139.222 430.832C136.854 428.463 135.524 425.251 135.524 421.902V150.563C135.524 146.733 136.279 142.94 137.744 139.401C139.21 135.863 141.359 132.648 144.067 129.941C146.776 127.233 149.991 125.086 153.529 123.622C157.068 122.158 160.86 121.406 164.689 121.409H545.298C553.019 121.425 560.418 124.503 565.874 129.968C571.33 135.433 574.396 142.839 574.402 150.563Z" fill="white"/>
<path d="M574.402 150.563V151.807H135.606V150.563C135.606 146.732 136.36 142.94 137.826 139.401C139.292 135.863 141.441 132.648 144.149 129.941C146.858 127.233 150.073 125.086 153.611 123.622C157.149 122.158 160.941 121.406 164.77 121.409H545.298C553.019 121.425 564.544 120.377 570 125.842C575.456 131.308 574.396 142.839 574.402 150.563Z" fill="black"/>
<path d="M406.98 173.494H383.771C383.279 173.497 382.791 173.402 382.336 173.216C381.881 173.029 381.467 172.755 381.118 172.408C380.77 172.061 380.493 171.648 380.304 171.194C380.115 170.74 380.018 170.253 380.018 169.761V169.761C380.018 168.765 380.413 167.81 381.117 167.106C381.821 166.402 382.775 166.007 383.771 166.007H406.98C407.972 166.012 408.921 166.41 409.62 167.113C410.32 167.817 410.712 168.768 410.712 169.761C410.712 170.751 410.319 171.7 409.619 172.4C408.919 173.101 407.97 173.494 406.98 173.494Z" fill="#EEEEEE"/>
<path d="M450.85 173.494H427.559C426.569 173.494 425.619 173.101 424.919 172.4C424.22 171.7 423.826 170.751 423.826 169.761V169.761C423.826 168.768 424.219 167.817 424.918 167.113C425.618 166.41 426.567 166.012 427.559 166.007H450.768C451.763 166.007 452.718 166.402 453.422 167.106C454.125 167.81 454.521 168.765 454.521 169.761V169.761C454.521 170.74 454.136 171.681 453.449 172.379C452.762 173.077 451.829 173.478 450.85 173.494Z" fill="#EEEEEE"/>
<path d="M495.392 173.494H472.203C471.711 173.497 471.224 173.402 470.768 173.216C470.313 173.029 469.899 172.755 469.551 172.408C469.202 172.061 468.925 171.648 468.736 171.194C468.547 170.74 468.45 170.253 468.45 169.761C468.45 168.765 468.846 167.81 469.549 167.106C470.253 166.402 471.208 166.007 472.203 166.007H495.392C496.387 166.007 497.342 166.402 498.045 167.106C498.749 167.81 499.144 168.765 499.144 169.761V169.761C499.144 170.253 499.047 170.74 498.859 171.194C498.67 171.648 498.393 172.061 498.044 172.408C497.695 172.755 497.282 173.029 496.826 173.216C496.371 173.402 495.884 173.497 495.392 173.494V173.494Z" fill="#EEEEEE"/>
<path d="M539.282 173.494H516.073C515.582 173.494 515.097 173.397 514.644 173.21C514.191 173.022 513.78 172.747 513.433 172.4C513.087 172.054 512.812 171.642 512.624 171.189C512.437 170.736 512.34 170.251 512.34 169.761V169.761C512.34 168.768 512.733 167.817 513.432 167.113C514.132 166.41 515.081 166.012 516.073 166.007H539.282C540.277 166.007 541.232 166.402 541.935 167.106C542.639 167.81 543.034 168.765 543.034 169.761V169.761C543.035 170.253 542.937 170.74 542.748 171.194C542.56 171.648 542.283 172.061 541.934 172.408C541.585 172.755 541.172 173.029 540.716 173.216C540.261 173.402 539.774 173.497 539.282 173.494V173.494Z" fill="#EEEEEE"/>
<path d="M350.629 213.093H178.863C176.43 213.093 174.458 215.066 174.458 217.5V326.831C174.458 329.265 176.43 331.238 178.863 331.238H350.629C353.062 331.238 355.034 329.265 355.034 326.831V217.5C355.034 215.066 353.062 213.093 350.629 213.093Z" fill="#EEEEEE"/>
<path d="M492.985 213.093H395.457C393.565 213.093 392.031 214.628 392.031 216.521V228.292C392.031 230.185 393.565 231.72 395.457 231.72H492.985C494.878 231.72 496.412 230.185 496.412 228.292V216.521C496.412 214.628 494.878 213.093 492.985 213.093Z" fill="#EEEEEE"/>
<path d="M465.146 254.284H395.335C394.458 254.284 393.618 253.936 392.998 253.316C392.379 252.696 392.031 251.855 392.031 250.979V250.979C392.036 250.104 392.386 249.266 393.004 248.648C393.623 248.029 394.46 247.679 395.335 247.674H465.146C466.023 247.674 466.863 248.022 467.483 248.642C468.102 249.262 468.45 250.102 468.45 250.979V250.979C468.453 251.413 468.369 251.844 468.204 252.247C468.039 252.649 467.796 253.014 467.489 253.322C467.181 253.629 466.816 253.873 466.414 254.038C466.012 254.203 465.581 254.286 465.146 254.284V254.284Z" fill="#EEEEEE"/>
<path d="M534.999 270.176H395.335C394.458 270.176 393.618 269.828 392.998 269.208C392.379 268.589 392.031 267.748 392.031 266.871V266.871C392.036 265.997 392.386 265.159 393.004 264.54C393.623 263.922 394.46 263.572 395.335 263.566H534.999C535.433 263.566 535.862 263.652 536.263 263.818C536.664 263.984 537.028 264.227 537.335 264.534C537.642 264.841 537.885 265.206 538.051 265.607C538.217 266.008 538.303 266.437 538.303 266.871V266.871C538.306 267.306 538.222 267.737 538.057 268.139C537.892 268.542 537.649 268.907 537.341 269.214C537.034 269.522 536.668 269.765 536.266 269.93C535.864 270.096 535.433 270.179 534.999 270.176V270.176Z" fill="#EEEEEE"/>
<path d="M534.999 286.171H395.335C394.901 286.171 394.471 286.086 394.07 285.92C393.669 285.754 393.305 285.51 392.998 285.203C392.692 284.896 392.448 284.532 392.282 284.131C392.116 283.73 392.031 283.3 392.031 282.866V282.866C392.036 281.991 392.386 281.154 393.004 280.535C393.623 279.916 394.46 279.567 395.335 279.561H534.999C535.872 279.561 536.709 279.907 537.328 280.522C537.947 281.137 538.297 281.973 538.303 282.846V282.846C538.308 283.282 538.227 283.716 538.063 284.12C537.899 284.525 537.656 284.893 537.349 285.202C537.041 285.512 536.675 285.757 536.271 285.923C535.868 286.09 535.435 286.174 534.999 286.171V286.171Z" fill="#EEEEEE"/>
<path d="M534.999 302.166H395.335C394.458 302.166 393.618 301.818 392.998 301.198C392.379 300.578 392.031 299.737 392.031 298.861V298.861C392.031 297.984 392.379 297.144 392.998 296.524C393.618 295.904 394.458 295.556 395.335 295.556H534.999C535.433 295.553 535.864 295.637 536.266 295.802C536.668 295.967 537.034 296.21 537.341 296.518C537.649 296.825 537.892 297.191 538.057 297.593C538.222 297.995 538.306 298.426 538.303 298.861C538.306 299.296 538.222 299.727 538.057 300.129C537.892 300.531 537.649 300.897 537.341 301.204C537.034 301.511 536.668 301.755 536.266 301.92C535.864 302.085 535.433 302.169 534.999 302.166Z" fill="#EEEEEE"/>
<path d="M439.347 336.42H399.23C397.321 336.42 395.489 335.661 394.139 334.311C392.789 332.96 392.031 331.128 392.031 329.218C392.031 327.308 392.789 325.476 394.139 324.126C395.489 322.775 397.321 322.017 399.23 322.017H439.347C441.256 322.017 443.087 322.775 444.438 324.126C445.788 325.476 446.546 327.308 446.546 329.218V329.218C446.546 331.128 445.788 332.96 444.438 334.311C443.087 335.661 441.256 336.42 439.347 336.42V336.42Z" fill="#FFB450"/>
<path d="M573.404 376.08V421.902C573.404 423.56 573.079 425.203 572.447 426.735C571.816 428.267 570.89 429.659 569.723 430.832C568.556 432.004 567.171 432.935 565.646 433.569C564.122 434.204 562.487 434.531 560.837 434.531H149.091C145.758 434.531 142.562 433.2 140.205 430.832C137.848 428.463 136.524 425.251 136.524 421.902V376.08H573.404Z" fill="#EEEEEE"/>
<path d="M457.825 402.602V434.531H252.162V402.602C252.162 400.831 252.864 399.132 254.115 397.878C255.365 396.623 257.061 395.916 258.832 395.911H451.053C451.939 395.9 452.817 396.065 453.638 396.396C454.459 396.728 455.207 397.219 455.837 397.841C456.466 398.464 456.966 399.205 457.308 400.023C457.649 400.84 457.825 401.717 457.825 402.602V402.602Z" fill="#6E52FF"/>
<path d="M507.812 137.995C507.816 138.751 507.596 139.49 507.18 140.12C506.763 140.751 506.169 141.243 505.472 141.535C504.776 141.826 504.008 141.905 503.267 141.76C502.526 141.615 501.845 141.253 501.309 140.721C500.774 140.188 500.408 139.508 500.259 138.768C500.111 138.027 500.185 137.259 500.473 136.561C500.761 135.862 501.25 135.265 501.878 134.845C502.505 134.425 503.243 134.201 503.998 134.201C505.006 134.201 505.973 134.6 506.688 135.311C507.403 136.022 507.807 136.987 507.812 137.995Z" fill="#FF5050"/>
<path d="M528.574 137.995C528.578 138.752 528.358 139.492 527.94 140.123C527.523 140.753 526.927 141.245 526.229 141.537C525.532 141.828 524.763 141.905 524.022 141.759C523.28 141.612 522.598 141.248 522.064 140.713C521.529 140.179 521.166 139.497 521.019 138.755C520.873 138.013 520.95 137.244 521.241 136.546C521.532 135.849 522.024 135.253 522.654 134.835C523.285 134.418 524.025 134.197 524.781 134.201C525.787 134.201 526.752 134.601 527.463 135.312C528.175 136.024 528.574 136.989 528.574 137.995V137.995Z" fill="#FFB450"/>
<path d="M548.419 137.995C548.423 138.752 548.202 139.492 547.784 140.123C547.367 140.753 546.771 141.245 546.074 141.537C545.376 141.828 544.607 141.905 543.866 141.759C543.124 141.612 542.443 141.248 541.908 140.713C541.373 140.179 541.01 139.497 540.863 138.755C540.717 138.013 540.794 137.244 541.085 136.546C541.376 135.849 541.868 135.253 542.499 134.835C543.129 134.418 543.869 134.197 544.625 134.201C545.631 134.201 546.596 134.601 547.308 135.312C548.019 136.024 548.419 136.989 548.419 137.995Z" fill="#50FF81"/>
<path d="M574.402 150.563V421.902C574.402 423.56 574.075 425.203 573.441 426.735C572.806 428.267 571.876 429.659 570.704 430.832C569.532 432.004 568.14 432.935 566.609 433.569C565.077 434.204 563.435 434.531 561.777 434.531H148.148C144.8 434.531 141.589 433.2 139.222 430.832C136.854 428.463 135.524 425.251 135.524 421.902V150.563C135.524 146.733 136.279 142.94 137.744 139.401C139.21 135.863 141.359 132.648 144.067 129.941C146.776 127.233 149.991 125.086 153.529 123.622C157.068 122.158 160.86 121.406 164.689 121.409H545.298C553.019 121.425 560.418 124.503 565.874 129.968C571.33 135.433 574.396 142.839 574.402 150.563Z" stroke="black" stroke-miterlimit="10"/>
<g style="mix-blend-mode:multiply">
<path d="M47.1064 100.352H215.283C217.636 100.352 219.545 102.26 219.545 104.615V230.798C219.545 233.153 217.636 235.062 215.283 235.062H47.1064C44.7529 235.062 42.8445 233.153 42.8445 230.798V104.615C42.8445 102.26 44.7529 100.352 47.1064 100.352Z" stroke="black" stroke-width="2"/>
</g>
<path d="M203.765 90.3376H35.5892C32.6831 90.3376 30.3273 92.6942 30.3273 95.6012V221.764C30.3273 224.671 32.6831 227.027 35.5892 227.027H203.765C206.671 227.027 209.027 224.671 209.027 221.764V95.6012C209.027 92.6942 206.671 90.3376 203.765 90.3376Z" fill="#FFCC4D"/>
<path d="M209.027 175.983V221.764C209.027 223.154 208.475 224.488 207.492 225.471C206.509 226.455 205.176 227.007 203.786 227.007H35.5687C34.1802 227.002 32.8502 226.447 31.8684 225.465C30.8866 224.483 30.3326 223.153 30.3273 221.764V177.697C30.3273 177.697 59.0229 128.203 79.275 128.203C104.646 128.203 119.086 185.959 131.669 185.959C144.253 185.959 160.814 146.156 177.497 146.156C187.49 146.156 200.339 162.742 209.027 175.983Z" fill="#FFE7B0"/>
<path d="M186.083 118.614C186.083 120.919 185.399 123.172 184.119 125.088C182.838 127.004 181.018 128.497 178.889 129.378C176.76 130.26 174.418 130.489 172.158 130.038C169.898 129.587 167.823 128.475 166.196 126.844C164.568 125.213 163.46 123.135 163.013 120.874C162.566 118.613 162.8 116.27 163.684 114.142C164.569 112.014 166.065 110.196 167.982 108.918C169.9 107.641 172.154 106.961 174.458 106.965C177.543 106.97 180.5 108.2 182.679 110.384C184.859 112.568 186.083 115.528 186.083 118.614V118.614Z" fill="#FFE7B0"/>
<g style="mix-blend-mode:multiply">
<path d="M550.353 213.765H647.697C649.015 213.765 650.083 214.833 650.083 216.151V348.516C650.083 349.834 649.015 350.903 647.697 350.903H550.353C549.036 350.903 547.967 349.834 547.967 348.516V216.151C547.967 214.833 549.036 213.765 550.353 213.765Z" stroke="black" stroke-width="2"/>
</g>
<path d="M638.89 203.239H541.545C539.676 203.239 538.16 204.756 538.16 206.626V338.991C538.16 340.861 539.676 342.377 541.545 342.377H638.89C640.76 342.377 642.276 340.861 642.276 338.991V206.626C642.276 204.756 640.76 203.239 638.89 203.239Z" fill="#4C3EDB"/>
<path d="M624.186 218.357H556.271V227.537H624.186V218.357Z" fill="#9A90FC"/>
<path d="M604.444 327.607H575.891C575.217 327.607 574.549 327.473 573.927 327.215C573.305 326.956 572.739 326.577 572.264 326.099C571.788 325.622 571.411 325.055 571.155 324.431C570.899 323.808 570.769 323.14 570.772 322.465C570.769 321.791 570.899 321.123 571.155 320.499C571.411 319.876 571.788 319.309 572.264 318.831C572.739 318.354 573.305 317.975 573.927 317.716C574.549 317.457 575.217 317.324 575.891 317.324H604.444C605.807 317.324 607.114 317.866 608.078 318.83C609.042 319.794 609.583 321.102 609.583 322.465V322.465C609.583 323.829 609.042 325.137 608.078 326.101C607.114 327.065 605.807 327.607 604.444 327.607V327.607Z" fill="#FFCC4D"/>
<path d="M592.043 240.9H564.429C563.325 240.9 562.43 241.795 562.43 242.9V243.247C562.43 244.351 563.325 245.246 564.429 245.246H592.043C593.147 245.246 594.042 244.351 594.042 243.247V242.9C594.042 241.795 593.147 240.9 592.043 240.9Z" fill="#9A90FC"/>
<path d="M627.755 251.57H564.429C563.325 251.57 562.43 252.465 562.43 253.57V253.916C562.43 255.021 563.325 255.916 564.429 255.916H627.755C628.858 255.916 629.753 255.021 629.753 253.916V253.57C629.753 252.465 628.858 251.57 627.755 251.57Z" fill="#9A90FC"/>
<path d="M627.755 262.24H564.429C563.325 262.24 562.43 263.135 562.43 264.24V264.586C562.43 265.691 563.325 266.586 564.429 266.586H627.755C628.858 266.586 629.753 265.691 629.753 264.586V264.24C629.753 263.135 628.858 262.24 627.755 262.24Z" fill="#9A90FC"/>
<path d="M551.458 243.063C551.453 243.49 551.323 243.906 551.083 244.259C550.843 244.612 550.504 244.886 550.109 245.046C549.714 245.207 549.28 245.247 548.862 245.161C548.444 245.075 548.06 244.868 547.76 244.564C547.46 244.261 547.256 243.876 547.174 243.457C547.092 243.038 547.136 242.604 547.3 242.21C547.465 241.816 547.742 241.48 548.097 241.243C548.452 241.006 548.869 240.88 549.296 240.88C549.581 240.88 549.864 240.937 550.128 241.047C550.391 241.156 550.631 241.318 550.832 241.521C551.033 241.724 551.191 241.964 551.299 242.229C551.406 242.494 551.46 242.777 551.458 243.063V243.063Z" fill="#9A90FC"/>
<path d="M592.043 276.358H564.429C563.325 276.358 562.43 277.253 562.43 278.357V278.704C562.43 279.809 563.325 280.704 564.429 280.704H592.043C593.147 280.704 594.042 279.809 594.042 278.704V278.357C594.042 277.253 593.147 276.358 592.043 276.358Z" fill="#9A90FC"/>
<path d="M627.755 287.028H564.429C563.325 287.028 562.43 287.923 562.43 289.027V289.374C562.43 290.478 563.325 291.374 564.429 291.374H627.755C628.858 291.374 629.753 290.478 629.753 289.374V289.027C629.753 287.923 628.858 287.028 627.755 287.028Z" fill="#9A90FC"/>
<path d="M627.755 297.698H564.429C563.325 297.698 562.43 298.593 562.43 299.697V300.044C562.43 301.148 563.325 302.043 564.429 302.043H627.755C628.858 302.043 629.753 301.148 629.753 300.044V299.697C629.753 298.593 628.858 297.698 627.755 297.698Z" fill="#9A90FC"/>
<path d="M551.458 278.521C551.453 278.948 551.323 279.364 551.083 279.717C550.843 280.069 550.504 280.343 550.109 280.504C549.714 280.665 549.28 280.704 548.862 280.619C548.444 280.533 548.06 280.325 547.76 280.022C547.46 279.719 547.256 279.334 547.174 278.915C547.092 278.496 547.136 278.062 547.3 277.668C547.465 277.274 547.742 276.938 548.097 276.701C548.452 276.464 548.869 276.338 549.296 276.338C549.581 276.338 549.864 276.394 550.128 276.504C550.391 276.614 550.631 276.775 550.832 276.978C551.033 277.181 551.191 277.422 551.299 277.687C551.406 277.952 551.46 278.235 551.458 278.521V278.521Z" fill="#9A90FC"/>
<path d="M688.001 200.261L638.197 241.349C637.811 241.678 637.402 241.978 636.973 242.247C635.915 242.932 634.76 243.454 633.547 243.797L625.389 246.082C625.171 246.143 624.94 246.139 624.724 246.071C624.509 246.002 624.318 245.872 624.175 245.697C624.032 245.521 623.944 245.308 623.92 245.083C623.897 244.858 623.939 244.631 624.043 244.43L627.795 236.963C628.331 235.866 629.018 234.85 629.835 233.943C630.192 233.552 630.581 233.19 630.997 232.862L680.557 191.957C681.657 191.018 683.072 190.53 684.516 190.591C685.961 190.651 687.33 191.256 688.348 192.284C688.866 192.821 689.27 193.459 689.534 194.157C689.798 194.856 689.918 195.6 689.885 196.347C689.853 197.093 689.669 197.824 689.345 198.497C689.021 199.17 688.564 199.77 688.001 200.261V200.261Z" fill="#D24F30"/>
<path d="M636.973 242.247C635.915 242.932 634.76 243.454 633.547 243.797L628.836 245.144L625.491 246.082C625.273 246.143 625.042 246.139 624.827 246.071C624.611 246.002 624.42 245.872 624.277 245.697C624.134 245.521 624.046 245.308 624.022 245.083C623.999 244.858 624.041 244.631 624.145 244.43L625.695 241.349L627.898 236.963C628.433 235.866 629.12 234.85 629.937 233.943C631.802 234.471 633.468 235.543 634.721 237.022C635.974 238.501 636.759 240.32 636.973 242.247V242.247Z" fill="#FFE7B0"/>
<path d="M628.836 245.144L625.491 246.082C625.273 246.143 625.042 246.139 624.827 246.071C624.611 246.002 624.42 245.872 624.277 245.697C624.134 245.521 624.046 245.308 624.022 245.083C623.999 244.858 624.041 244.631 624.145 244.43L625.695 241.349C626.171 241.331 626.645 241.422 627.08 241.617C627.515 241.811 627.899 242.103 628.203 242.47C628.506 242.837 628.722 243.269 628.831 243.733C628.941 244.197 628.943 244.68 628.836 245.144V245.144Z" fill="#FFCC4D"/>
<g style="mix-blend-mode:multiply">
<path d="M342.531 8.85358H469C472.964 8.85358 476.178 12.0683 476.178 16.0346V102.496C476.178 106.462 472.964 109.677 469 109.677H342.531C338.567 109.677 335.353 106.462 335.353 102.496V16.0346C335.353 12.0683 338.567 8.85358 342.531 8.85358Z" stroke="black" stroke-width="2"/>
</g>
<path d="M460.659 0H334.191C329.674 0 326.012 3.66275 326.012 8.18098V94.6423C326.012 99.1606 329.674 102.823 334.191 102.823H460.659C465.176 102.823 468.838 99.1606 468.838 94.6423V8.18098C468.838 3.66275 465.176 0 460.659 0Z" fill="#6E52FF"/>
<path d="M468.838 83.0543V94.622C468.838 96.7863 467.978 98.8619 466.448 100.392C464.918 101.923 462.843 102.783 460.68 102.783H334.231C332.068 102.783 329.993 101.923 328.463 100.392C326.933 98.8619 326.073 96.7863 326.073 94.622V83.0543H468.838Z" fill="#4C3EDB"/>
<path d="M401.841 93.9079C401.838 94.8321 402.115 95.7355 402.636 96.4989H338.759C338.072 96.4989 337.413 96.2259 336.928 95.74C336.442 95.2541 336.169 94.5951 336.169 93.9079C336.169 93.2207 336.442 92.5617 336.928 92.0758C337.413 91.5899 338.072 91.3169 338.759 91.3169H402.636C402.115 92.0802 401.838 92.9836 401.841 93.9079V93.9079Z" fill="#6E52FF"/>
<path d="M423.908 93.9079C423.908 94.5951 423.635 95.2541 423.149 95.74C422.663 96.2259 422.005 96.4989 421.318 96.4989H402.636C402.117 95.7346 401.839 94.8319 401.839 93.9079C401.839 92.9839 402.117 92.0812 402.636 91.3169H421.318C422.005 91.3169 422.663 91.5899 423.149 92.0758C423.635 92.5617 423.908 93.2207 423.908 93.9079Z" fill="#8F83FF"/>
<path d="M411.018 93.9079C411.027 95.0171 410.637 96.0925 409.919 96.9384C409.202 97.7843 408.205 98.3445 407.11 98.5171C406.014 98.6898 404.893 98.4634 403.951 97.8792C403.008 97.295 402.306 96.3917 401.973 95.3337C401.64 94.2757 401.698 93.1332 402.135 92.1141C402.573 91.0949 403.362 90.2668 404.359 89.7804C405.355 89.2939 406.493 89.1815 407.566 89.4635C408.638 89.7454 409.574 90.4031 410.203 91.3169C410.73 92.0784 411.014 92.9817 411.018 93.9079V93.9079Z" fill="white"/>
<path d="M408.673 93.9079C408.677 94.3575 408.547 94.7981 408.3 95.1736C408.053 95.5491 407.699 95.8426 407.285 96.0165C406.87 96.1904 406.413 96.2369 405.972 96.1502C405.531 96.0635 405.126 95.8474 404.808 95.5295C404.49 95.2115 404.274 94.8062 404.188 94.365C404.101 93.9238 404.148 93.4668 404.321 93.0522C404.495 92.6376 404.789 92.2841 405.164 92.0369C405.539 91.7896 405.98 91.6597 406.429 91.6637C407.023 91.669 407.59 91.9072 408.01 92.3269C408.429 92.7466 408.667 93.3143 408.673 93.9079V93.9079Z" fill="#6E52FF"/>
<path d="M443.181 96.1928V91.8677C443.186 91.74 443.222 91.6155 443.287 91.5053C443.351 91.3951 443.442 91.3025 443.551 91.2359C443.66 91.1692 443.784 91.1306 443.912 91.1234C444.039 91.1161 444.166 91.1406 444.282 91.1945L448.586 93.357C448.71 93.4201 448.814 93.5164 448.887 93.6352C448.96 93.7541 448.999 93.8908 448.999 94.0303C448.999 94.1697 448.96 94.3065 448.887 94.4253C448.814 94.5442 448.71 94.6405 448.586 94.7035L444.282 96.8661C444.166 96.92 444.039 96.9444 443.912 96.9372C443.784 96.93 443.66 96.8913 443.551 96.8247C443.442 96.758 443.351 96.6655 443.287 96.5553C443.222 96.445 443.186 96.3205 443.181 96.1928V96.1928Z" fill="#8F83FF"/>
<path d="M454.786 95.3564V92.7042C454.786 92.3574 455.071 92.133 455.316 92.2962L457.355 93.6223C457.419 93.6698 457.47 93.7314 457.506 93.8022C457.541 93.873 457.559 93.9511 457.559 94.0303C457.559 94.1095 457.541 94.1876 457.506 94.2584C457.47 94.3292 457.419 94.3908 457.355 94.4383L455.316 95.7644C455.071 95.9277 454.786 95.7032 454.786 95.3564Z" fill="#8F83FF"/>
<path d="M457.6 95.3564V92.7042C457.6 92.3574 457.886 92.133 458.131 92.2962L460.17 93.6223C460.233 93.6698 460.285 93.7314 460.32 93.8022C460.356 93.873 460.374 93.9511 460.374 94.0303C460.374 94.1095 460.356 94.1876 460.32 94.2584C460.285 94.3292 460.233 94.3908 460.17 94.4383L458.131 95.7644C457.886 95.9277 457.6 95.7032 457.6 95.3564Z" fill="#8F83FF"/>
<path d="M437.878 95.3564V92.7042C437.878 92.3574 437.593 92.133 437.348 92.2962L435.309 93.6223C435.245 93.6698 435.194 93.7314 435.159 93.8022C435.123 93.873 435.105 93.9511 435.105 94.0303C435.105 94.1095 435.123 94.1876 435.159 94.2584C435.194 94.3292 435.245 94.3908 435.309 94.4383L437.348 95.7644C437.593 95.9277 437.878 95.7032 437.878 95.3564Z" fill="#8F83FF"/>
<path d="M435.064 95.3564V92.7042C435.064 92.3574 434.778 92.133 434.534 92.2962L432.494 93.6223C432.431 93.6698 432.379 93.7314 432.344 93.8022C432.309 93.873 432.29 93.9511 432.29 94.0303C432.29 94.1095 432.309 94.1876 432.344 94.2584C432.379 94.3292 432.431 94.3908 432.494 94.4383L434.534 95.7644C434.778 95.9277 435.064 95.7032 435.064 95.3564Z" fill="#8F83FF"/>
<path d="M422.247 48.7638C425.496 35.0826 417.042 21.3578 403.365 18.1086C389.688 14.8594 375.968 23.3161 372.719 36.9973C369.471 50.6785 377.925 64.4033 391.602 67.6526C405.279 70.9018 418.999 62.445 422.247 48.7638Z" fill="#FBF8FF"/>
<path d="M390.705 50.6568V35.0089C390.705 34.6165 390.81 34.2312 391.01 33.8936C391.21 33.5561 391.498 33.2787 391.842 33.0908C392.187 32.9029 392.575 32.8113 392.967 32.8257C393.359 32.8402 393.74 32.96 394.07 33.1728L406.103 41.0069C406.406 41.2055 406.655 41.4764 406.827 41.7952C406.999 42.1139 407.089 42.4705 407.089 42.8329C407.089 43.1952 406.999 43.5518 406.827 43.8706C406.655 44.1893 406.406 44.4602 406.103 44.6588L394.07 52.4929C393.74 52.7057 393.359 52.8256 392.967 52.84C392.575 52.8544 392.187 52.7629 391.842 52.5749C391.498 52.387 391.21 52.1097 391.01 51.7721C390.81 51.4346 390.705 51.0493 390.705 50.6568Z" fill="#6E52FF"/>
<g style="mix-blend-mode:multiply">
<path d="M395.006 376.406H466.746L485.008 394.852V494.163C485.008 494.672 484.806 495.159 484.447 495.519C484.087 495.878 483.6 496.08 483.092 496.08H394.333C393.825 496.08 393.338 495.878 392.978 495.519C392.619 495.159 392.417 494.672 392.417 494.163V378.997C392.417 378.31 392.69 377.651 393.175 377.165C393.661 376.679 394.32 376.406 395.006 376.406Z" stroke="black" stroke-width="2"/>
</g>
<path d="M387.319 367.736H459.477L478.342 386.75V486.493C478.342 487.267 478.035 488.009 477.488 488.556C476.941 489.103 476.199 489.41 475.425 489.41H386.646C385.873 489.41 385.131 489.103 384.584 488.556C384.037 488.009 383.73 487.267 383.73 486.493V371.306C383.73 370.836 383.823 370.37 384.004 369.935C384.184 369.501 384.449 369.106 384.783 368.775C385.116 368.443 385.512 368.18 385.947 368.002C386.383 367.824 386.849 367.733 387.319 367.736V367.736Z" fill="#FFCC4D"/>
<path d="M459.477 367.736V383.506C459.482 384.369 459.828 385.194 460.439 385.801C461.051 386.409 461.878 386.75 462.74 386.75H478.342L459.477 367.736Z" fill="#FFE7B0"/>
<path d="M395.498 422.616C396.455 420.905 397.866 419.493 399.577 418.536C401.366 417.543 403.384 417.036 405.43 417.067C407.797 417.05 410.111 417.762 412.059 419.107C413.99 420.387 415.429 422.286 416.138 424.493H410.937C410.477 423.478 409.715 422.63 408.755 422.065C407.761 421.502 406.633 421.22 405.491 421.249C404.26 421.227 403.046 421.545 401.983 422.167C400.955 422.792 400.127 423.698 399.597 424.779C399.02 426.011 398.721 427.355 398.721 428.716C398.721 430.077 399.02 431.421 399.597 432.654C400.121 433.743 400.95 434.658 401.983 435.285C403.046 435.908 404.26 436.225 405.491 436.203C406.633 436.232 407.761 435.95 408.755 435.387C409.711 434.809 410.472 433.956 410.937 432.939H416.138C415.471 435.133 414.075 437.033 412.181 438.325C410.215 439.637 407.895 440.313 405.532 440.263C403.485 440.287 401.466 439.773 399.679 438.774C397.972 437.813 396.561 436.401 395.6 434.694C394.609 432.864 394.09 430.817 394.09 428.736C394.09 426.656 394.609 424.608 395.6 422.779L395.498 422.616Z" fill="white"/>
<path d="M446.2 417.312V439.937H441.672V425.228L435.717 439.937H432.29L426.172 425.228V439.937H421.644V417.312H426.804L433.983 434.123L441.162 417.312H446.2Z" fill="white"/>
<path d="M455.826 439.325C454.628 438.846 453.589 438.04 452.828 436.999C452.087 435.95 451.694 434.693 451.706 433.408H456.56C456.583 434.243 456.935 435.036 457.539 435.612C458.224 436.181 459.097 436.473 459.987 436.428C460.882 436.479 461.766 436.203 462.475 435.653C462.779 435.41 463.021 435.098 463.18 434.744C463.34 434.389 463.413 434.001 463.393 433.613C463.415 433.002 463.195 432.408 462.781 431.96C462.343 431.513 461.814 431.165 461.231 430.94C460.403 430.618 459.558 430.339 458.702 430.103C457.479 429.76 456.28 429.338 455.112 428.839C454.182 428.398 453.371 427.74 452.746 426.921C452.049 425.918 451.705 424.713 451.767 423.493C451.74 422.256 452.089 421.04 452.767 420.005C453.465 418.988 454.443 418.194 455.581 417.72C456.872 417.177 458.26 416.906 459.66 416.924C461.697 416.827 463.706 417.432 465.351 418.638C466.073 419.203 466.662 419.92 467.078 420.738C467.494 421.555 467.726 422.454 467.757 423.371H462.842C462.83 422.997 462.734 422.63 462.561 422.298C462.388 421.966 462.143 421.677 461.843 421.453C461.151 420.915 460.291 420.64 459.416 420.678C458.674 420.654 457.949 420.901 457.376 421.372C457.093 421.626 456.874 421.943 456.735 422.297C456.597 422.651 456.544 423.033 456.581 423.412C456.571 423.69 456.618 423.968 456.72 424.228C456.822 424.488 456.976 424.724 457.172 424.922C457.598 425.344 458.104 425.677 458.661 425.901C459.246 426.146 460.082 426.431 461.169 426.758C462.396 427.097 463.596 427.527 464.759 428.043C465.716 428.515 466.543 429.216 467.166 430.083C467.873 431.066 468.225 432.26 468.165 433.47C468.178 434.658 467.852 435.826 467.227 436.836C466.563 437.909 465.608 438.773 464.473 439.325C463.132 439.966 461.657 440.281 460.17 440.243C458.673 440.248 457.193 439.935 455.826 439.325V439.325Z" fill="white"/>
<path d="M96.073 392.212C95.4751 392.212 94.8907 392.034 94.3936 391.702C93.8964 391.37 93.5089 390.897 93.2801 390.345C93.0512 389.792 92.9914 389.184 93.108 388.597C93.2247 388.011 93.5127 387.472 93.9355 387.049C94.3583 386.626 94.8969 386.338 95.4832 386.221C96.0696 386.105 96.6774 386.164 97.2297 386.393C97.7821 386.622 98.2543 387.01 98.5865 387.507C98.9187 388.004 99.096 388.589 99.096 389.187C99.096 389.585 99.0178 389.978 98.8659 390.345C98.7139 390.712 98.4912 391.045 98.2105 391.326C97.9298 391.607 97.5965 391.829 97.2297 391.981C96.863 392.133 96.47 392.212 96.073 392.212Z" stroke="black" stroke-width="1.5"/>
<path d="M78.003 392.212C77.4052 392.212 76.8207 392.034 76.3236 391.702C75.8265 391.37 75.439 390.897 75.2101 390.345C74.9813 389.792 74.9214 389.184 75.0381 388.597C75.1547 388.011 75.4427 387.472 75.8655 387.049C76.2883 386.626 76.8269 386.338 77.4133 386.221C77.9997 386.105 78.6075 386.164 79.1599 386.393C79.7122 386.622 80.1844 387.01 80.5166 387.507C80.8488 388.004 81.0261 388.589 81.0261 389.187C81.0261 389.585 80.9479 389.978 80.796 390.345C80.644 390.712 80.4213 391.045 80.1406 391.326C79.8599 391.607 79.5266 391.829 79.1599 391.981C78.7931 392.133 78.4 392.212 78.003 392.212Z" stroke="black" stroke-width="1.5"/>
<path d="M59.9332 392.212C59.3353 392.212 58.7509 392.034 58.2538 391.702C57.7567 391.37 57.3692 390.897 57.1403 390.345C56.9115 389.792 56.8516 389.184 56.9682 388.597C57.0849 388.011 57.3729 387.472 57.7957 387.049C58.2185 386.626 58.7571 386.338 59.3435 386.221C59.9299 386.105 60.5376 386.164 61.09 386.393C61.6423 386.622 62.1145 387.01 62.4467 387.507C62.7789 388.004 62.9563 388.589 62.9563 389.187C62.9563 389.585 62.8781 389.978 62.7261 390.345C62.5742 390.712 62.3514 391.045 62.0707 391.326C61.79 391.607 61.4567 391.829 61.09 391.981C60.7232 392.133 60.3302 392.212 59.9332 392.212Z" stroke="black" stroke-width="1.5"/>
<path d="M41.843 392.212C41.2451 392.212 40.6607 392.034 40.1636 391.702C39.6664 391.37 39.2789 390.897 39.0501 390.345C38.8212 389.792 38.7614 389.184 38.8781 388.597C38.9947 388.011 39.2827 387.472 39.7054 387.049C40.1282 386.626 40.6669 386.338 41.2533 386.221C41.8397 386.105 42.4474 386.164 42.9998 386.393C43.5521 386.622 44.0243 387.01 44.3565 387.507C44.6887 388.004 44.8661 388.589 44.8661 389.187C44.8661 389.585 44.7879 389.978 44.6359 390.345C44.484 390.712 44.2613 391.045 43.9805 391.326C43.6998 391.607 43.3665 391.829 42.9998 391.981C42.633 392.133 42.24 392.212 41.843 392.212Z" stroke="black" stroke-width="1.5"/>
<path d="M23.7731 392.212C23.1752 392.212 22.5908 392.034 22.0936 391.702C21.5965 391.37 21.209 390.897 20.9802 390.345C20.7513 389.792 20.6914 389.184 20.8081 388.597C20.9248 388.011 21.2127 387.472 21.6355 387.049C22.0583 386.626 22.597 386.338 23.1834 386.221C23.7698 386.105 24.3775 386.164 24.9299 386.393C25.4822 386.622 25.9544 387.01 26.2866 387.507C26.6188 388.004 26.7961 388.589 26.7961 389.187C26.7961 389.585 26.7179 389.978 26.566 390.345C26.4141 390.712 26.1914 391.045 25.9106 391.326C25.6299 391.607 25.2966 391.829 24.9299 391.981C24.5632 392.133 24.17 392.212 23.7731 392.212Z" stroke="black" stroke-width="1.5"/>
<path d="M107.555 408.308C106.957 408.308 106.373 408.131 105.876 407.799C105.379 407.466 104.991 406.994 104.762 406.441C104.534 405.889 104.474 405.281 104.59 404.694C104.707 404.107 104.995 403.568 105.418 403.145C105.841 402.723 106.379 402.435 106.966 402.318C107.552 402.201 108.16 402.261 108.712 402.49C109.264 402.719 109.737 403.106 110.069 403.604C110.401 404.101 110.578 404.686 110.578 405.284C110.578 406.086 110.26 406.855 109.693 407.423C109.126 407.99 108.357 408.308 107.555 408.308Z" stroke="black" stroke-width="1.5"/>
<path d="M89.4651 408.308C88.8672 408.308 88.2827 408.131 87.7856 407.799C87.2885 407.466 86.901 406.994 86.6721 406.441C86.4433 405.889 86.3835 405.281 86.5001 404.694C86.6168 404.107 86.9047 403.568 87.3275 403.145C87.7503 402.723 88.289 402.435 88.8753 402.318C89.4617 402.201 90.0695 402.261 90.6218 402.49C91.1742 402.719 91.6464 403.106 91.9786 403.604C92.3108 404.101 92.4881 404.686 92.4881 405.284C92.4881 406.086 92.1695 406.856 91.6026 407.423C91.0357 407.99 90.2668 408.308 89.4651 408.308Z" stroke="black" stroke-width="1.5"/>
<path d="M71.3951 408.308C70.7973 408.308 70.2128 408.131 69.7157 407.799C69.2186 407.466 68.8311 406.994 68.6022 406.441C68.3734 405.889 68.3135 405.281 68.4302 404.694C68.5468 404.107 68.8348 403.568 69.2576 403.145C69.6804 402.723 70.2191 402.435 70.8054 402.318C71.3918 402.201 71.9996 402.261 72.5519 402.49C73.1043 402.719 73.5764 403.106 73.9086 403.604C74.2408 404.101 74.4182 404.686 74.4182 405.284C74.4182 406.086 74.0996 406.855 73.5326 407.423C72.9657 407.99 72.1968 408.308 71.3951 408.308Z" stroke="black" stroke-width="1.5"/>
<path d="M56.3484 405.284C56.3484 406.955 54.9947 408.308 53.3253 408.308C51.6559 408.308 50.3022 406.955 50.3022 405.284C50.3022 403.614 51.6559 402.26 53.3253 402.26C54.9947 402.26 56.3484 403.614 56.3484 405.284Z" stroke="black" stroke-width="1.5"/>
<path d="M38.258 405.284C38.258 406.955 36.9043 408.308 35.235 408.308C33.5656 408.308 32.2119 406.955 32.2119 405.284C32.2119 403.614 33.5656 402.26 35.235 402.26C36.9043 402.26 38.258 403.614 38.258 405.284Z" stroke="black" stroke-width="1.5"/>
<path d="M120.959 421.381C120.959 423.051 119.606 424.405 117.936 424.405C116.267 424.405 114.913 423.051 114.913 421.381C114.913 419.71 116.267 418.357 117.936 418.357C119.606 418.357 120.959 419.71 120.959 421.381Z" stroke="black" stroke-width="1.5"/>
<path d="M102.869 421.381C102.869 423.051 101.515 424.405 99.8461 424.405C98.1767 424.405 96.823 423.051 96.823 421.381C96.823 419.71 98.1767 418.357 99.8461 418.357C101.515 418.357 102.869 419.71 102.869 421.381Z" stroke="black" stroke-width="1.5"/>
<path d="M81.7761 424.405C81.1783 424.405 80.5938 424.228 80.0967 423.895C79.5996 423.563 79.2121 423.091 78.9832 422.538C78.7544 421.986 78.6945 421.377 78.8111 420.791C78.9278 420.204 79.2158 419.665 79.6386 419.242C80.0614 418.819 80.6 418.531 81.1864 418.415C81.7728 418.298 82.3806 418.358 82.9329 418.587C83.4853 418.816 83.9574 419.203 84.2897 419.701C84.6219 420.198 84.7992 420.783 84.7992 421.381C84.7992 422.183 84.4806 422.952 83.9137 423.519C83.3467 424.087 82.5778 424.405 81.7761 424.405Z" stroke="black" stroke-width="1.5"/>
<path d="M63.7063 424.405C63.1085 424.405 62.524 424.228 62.0269 423.895C61.5297 423.563 61.1422 423.091 60.9133 422.538C60.6845 421.986 60.6247 421.377 60.7413 420.791C60.858 420.204 61.1459 419.665 61.5687 419.242C61.9915 418.819 62.5301 418.531 63.1165 418.415C63.7029 418.298 64.3107 418.358 64.8631 418.587C65.4154 418.816 65.8876 419.203 66.2198 419.701C66.552 420.198 66.7294 420.783 66.7294 421.381C66.7294 422.183 66.4108 422.952 65.8438 423.519C65.2768 424.087 64.508 424.405 63.7063 424.405Z" stroke="black" stroke-width="1.5"/>
<path d="M45.6161 424.405C45.0182 424.405 44.4337 424.228 43.9366 423.895C43.4395 423.563 43.052 423.091 42.8231 422.538C42.5943 421.986 42.5345 421.377 42.6511 420.791C42.7678 420.204 43.0557 419.665 43.4785 419.242C43.9013 418.819 44.4399 418.531 45.0263 418.415C45.6127 418.298 46.2205 418.358 46.7728 418.587C47.3252 418.816 47.7974 419.203 48.1296 419.701C48.4618 420.198 48.6391 420.783 48.6391 421.381C48.6391 422.183 48.3206 422.952 47.7536 423.519C47.1866 424.087 46.4177 424.405 45.6161 424.405Z" stroke="black" stroke-width="1.5"/>
<path d="M273.353 469.621H213.779C212.654 469.621 211.575 469.174 210.78 468.378C209.984 467.582 209.537 466.503 209.537 465.378V465.378C209.534 464.819 209.642 464.265 209.854 463.747C210.066 463.23 210.378 462.76 210.772 462.364C211.167 461.968 211.635 461.653 212.151 461.439C212.667 461.224 213.22 461.114 213.779 461.114H273.353C274.483 461.114 275.567 461.563 276.367 462.363C277.166 463.162 277.615 464.247 277.615 465.378C277.61 466.505 277.158 467.584 276.36 468.379C275.561 469.175 274.48 469.621 273.353 469.621V469.621Z" fill="black"/>
<path d="M273.353 490.941H213.779C212.654 490.941 211.575 490.493 210.78 489.698C209.984 488.902 209.537 487.823 209.537 486.697V486.697C209.537 485.57 209.983 484.488 210.778 483.689C211.573 482.89 212.652 482.438 213.779 482.433H273.353C274.482 482.438 275.563 482.889 276.361 483.688C277.159 484.486 277.61 485.568 277.615 486.697V486.697C277.61 487.824 277.158 488.904 276.36 489.699C275.561 490.494 274.48 490.941 273.353 490.941V490.941Z" fill="black"/>
</svg>
