<svg width="106" height="106" viewBox="0 0 106 106" fill="none" xmlns="http://www.w3.org/2000/svg">
<path d="M91.2407 61.4807L104.141 59.0563V47.5L91.2407 45.2776C90.2613 40.5968 88.4093 36.1419 85.7813 32.1454L93.1818 21.3164L85.0938 13.134L74.3974 20.6901C70.385 18.0783 65.9213 16.2354 61.2342 15.2554V15.2554L58.8077 2.3656H47.242L45.0177 15.2554C40.3307 16.2265 35.8708 18.0776 31.8747 20.7103L21.0165 13.3158L12.9285 21.3972L20.4908 32.105C17.8683 36.1045 16.0169 40.5583 15.0315 45.2372V45.2372L2.1311 47.6616V59.218L15.0315 61.4403C16.0248 66.1231 17.8756 70.5821 20.4908 74.5928L13.0903 85.4218L21.1783 93.6041L31.8747 86.0481C35.8789 88.6613 40.3363 90.5044 45.0177 91.4828V91.4828L47.4643 104.373H59.0303L61.2544 91.4828C65.9372 90.4982 70.3947 88.6482 74.3974 86.0279L85.2353 93.4223L93.3233 85.341L85.7611 74.6331C88.3862 70.6374 90.2317 66.1817 91.2002 61.5009L91.2407 61.4807ZM53.0653 77.3202C48.3303 77.3242 43.7005 75.9252 39.7613 73.3001C35.822 70.6749 32.7503 66.9416 30.9346 62.5721C29.1189 58.2027 28.6408 53.3934 29.5607 48.7525C30.4805 44.1115 32.757 39.8473 36.1023 36.4991C39.4476 33.1509 43.7114 30.8691 48.3546 29.9422C52.9979 29.0152 57.8119 29.4849 62.188 31.2917C66.5641 33.0985 70.3057 36.1614 72.9397 40.0929C75.5736 44.0244 76.9815 48.6481 76.9855 53.3792C76.9855 59.7218 74.4667 65.8051 69.9819 70.2938C65.4972 74.7824 59.4131 77.3095 53.0653 77.3202Z" stroke="black" stroke-width="3" stroke-miterlimit="10"/>
</svg>
