<svg width="364" height="47" viewBox="0 0 364 47" fill="none" xmlns="http://www.w3.org/2000/svg">
<g clip-path="url(#clip0_30_302)">
<path d="M1.67586 1.76681C16.7587 1.76682 16.7587 12.7519 31.7243 12.7519C46.6898 12.7519 46.8071 1.76682 61.7727 1.76682C76.7383 1.76682 76.8556 12.7519 91.8211 12.7519C106.787 12.7519 106.904 1.76682 121.87 1.76682C136.835 1.76682 136.952 12.7519 151.918 12.7519C166.884 12.7519 166.917 1.76682 182 1.76682C197.083 1.76682 197.083 12.7519 212.048 12.7519C227.014 12.7519 227.131 1.76682 242.097 1.76683C257.062 1.76683 257.18 12.7519 272.145 12.7519C287.111 12.7519 287.228 1.76683 302.21 1.76683C317.193 1.76683 317.293 12.7519 332.276 12.7519C347.258 12.7519 347.359 1.76683 362.341 1.76683" stroke="#434345" stroke-width="3" stroke-linecap="round" stroke-linejoin="round"/>
<path d="M1.67586 17.5579C16.7587 17.5579 16.7587 28.543 31.7243 28.543C46.6898 28.543 46.8071 17.5579 61.7727 17.5579C76.7383 17.5579 76.8556 28.543 91.8211 28.543C106.787 28.543 106.904 17.5579 121.87 17.5579C136.835 17.5579 136.952 28.543 151.918 28.543C166.884 28.543 167.001 17.5579 181.983 17.5579C196.965 17.5579 197.066 28.543 212.032 28.543C226.997 28.543 227.115 17.5579 242.08 17.5579C257.046 17.5579 257.163 28.543 272.129 28.543C287.094 28.543 287.211 17.5579 302.194 17.5579C317.176 17.5579 317.277 28.543 332.259 28.543C347.241 28.543 347.342 17.5579 362.324 17.5579" stroke="#434345" stroke-width="3" stroke-linecap="round" stroke-linejoin="round"/>
<path d="M1.67586 33.3489C16.7587 33.3489 16.7587 44.334 31.7243 44.334C46.6898 44.334 46.8071 33.3489 61.7727 33.3489C76.7383 33.3489 76.8556 44.334 91.8211 44.334C106.787 44.334 106.904 33.3489 121.87 33.3489C136.835 33.3489 136.952 44.334 151.918 44.334C166.884 44.334 167.001 33.3489 181.983 33.3489C196.965 33.3489 197.066 44.334 212.032 44.334C226.997 44.334 227.115 33.3489 242.08 33.3489C257.046 33.3489 257.163 44.334 272.129 44.334C287.094 44.334 287.211 33.3489 302.194 33.3489C317.176 33.3489 317.277 44.334 332.259 44.334C347.241 44.334 347.342 33.3489 362.324 33.3489" stroke="#434345" stroke-width="3" stroke-linecap="round" stroke-linejoin="round"/>
</g>
<defs>
<clipPath id="clip0_30_302">
<rect width="46" height="364" fill="white" transform="translate(364 0.050415) rotate(90)"/>
</clipPath>
</defs>
</svg>
