<svg width="60" height="60" viewBox="0 0 60 60" fill="none" xmlns="http://www.w3.org/2000/svg">
<g clip-path="url(#clip0_30_457)">
<path d="M6.32807 53.4875H14.8328V56.4844C14.8338 57.4298 15.2098 58.3361 15.8783 59.0046C16.5467 59.673 17.453 60.049 18.3984 60.05H41.6016C42.547 60.049 43.4533 59.673 44.1217 59.0046C44.7902 58.3361 45.1662 57.4298 45.1672 56.4844V53.4875H53.6719C55.3629 53.4856 56.9841 52.813 58.1798 51.6173C59.3755 50.4216 60.0481 48.8004 60.05 47.1094V6.32812C60.0481 4.63708 59.3755 3.01588 58.1798 1.82017C56.9841 0.624451 55.3629 -0.0481242 53.6719 -0.05L53.6719 -0.05L53.6219 -0.0500555V-0.05L6.32812 -0.05L6.32807 -0.05C4.63708 -0.0481242 3.01588 0.624451 1.82017 1.82017C0.624451 3.01588 -0.0481242 4.63708 -0.05 6.32807V6.32812L-0.05 47.1094L-0.05 47.1094C-0.0481242 48.8004 0.624451 50.4216 1.82017 51.6173C3.01588 52.813 4.63708 53.4856 6.32807 53.4875ZM26.8728 21.3875L26.8728 21.3875H26.8748L33.2812 21.3875L33.2833 21.3875C33.9276 21.3611 34.5513 21.1525 35.0818 20.7859C35.612 20.4195 36.0275 19.9102 36.2799 19.3172C36.2801 19.3169 36.2802 19.3165 36.2804 19.3161L37.3181 17.1594H41.5992C42.1452 17.16 42.6686 17.3771 43.0547 17.7632C43.4408 18.1493 43.658 18.6728 43.6586 19.2188L43.6609 56.4843C43.6603 57.0303 43.4432 57.5538 43.0571 57.9399C42.671 58.326 42.1475 58.5431 41.6015 58.5438H18.3984C17.8525 58.5431 17.329 58.326 16.9429 57.9399C16.5568 57.5538 16.3397 57.0303 16.3391 56.4843V19.2188C16.3397 18.6728 16.5568 18.1493 16.9429 17.7632C17.329 17.3771 17.8525 17.16 18.3985 17.1594H22.8407L23.8762 19.3172C24.1286 19.9102 24.544 20.4194 25.0743 20.7859C25.6048 21.1525 26.2284 21.3611 26.8728 21.3875ZM24.5111 17.1594H35.649L34.9237 18.6664L34.9236 18.6664L34.9222 18.6697C34.7895 19.0057 34.5648 19.2976 34.2739 19.5118C33.9835 19.7257 33.6389 19.8537 33.2793 19.8813H26.8782C26.5186 19.8537 26.174 19.7257 25.8836 19.5118C25.5928 19.2975 25.3681 19.0057 25.2352 18.6697L25.2354 18.6697L25.2338 18.6665L24.5111 17.1594ZM14.8328 19.2188V51.9813H6.32812C5.03652 51.9798 3.79818 51.466 2.88483 50.5527C1.97149 49.6393 1.45772 48.401 1.45625 47.1093V14.1125H58.5438V47.1093C58.5423 48.401 58.0285 49.6393 57.1152 50.5527C56.2018 51.466 54.9635 51.9798 53.6718 51.9813H45.1672V19.2188C45.1662 18.2734 44.7902 17.367 44.1217 16.6986C43.4533 16.0301 42.547 15.6541 41.6016 15.6531H18.3984H18.3984C17.453 15.6541 16.5467 16.0301 15.8783 16.6986C15.2098 17.367 14.8338 18.2734 14.8328 19.2187V19.2188ZM58.5438 12.6062H1.45625V6.32818C1.45772 5.03652 1.97149 3.79818 2.88483 2.88483C3.79818 1.97149 5.03652 1.45772 6.32818 1.45625H53.6719C54.9635 1.45772 56.2018 1.97149 57.1152 2.88483C58.0285 3.79818 58.5423 5.03652 58.5438 6.32818V12.6062Z" fill="black" stroke="black" stroke-width="0.1"/>
<path d="M7.26568 5.10625H7.26563C6.83854 5.10625 6.42105 5.2329 6.06594 5.47017C5.71083 5.70745 5.43406 6.04469 5.27062 6.43927C5.10719 6.83384 5.06442 7.26802 5.14774 7.6869C5.23106 8.10578 5.43672 8.49054 5.73872 8.79253C6.04071 9.09453 6.42548 9.30019 6.84435 9.38351C7.26323 9.46683 7.69741 9.42407 8.09198 9.26063C8.48656 9.09719 8.82381 8.82042 9.06108 8.46531C9.29836 8.1102 9.425 7.69271 9.425 7.26562V7.26557C9.42437 6.69308 9.19666 6.14421 8.79185 5.7394C8.38704 5.33459 7.83817 5.10689 7.26568 5.10625ZM7.26563 7.91875C7.13645 7.91875 7.01018 7.88044 6.90277 7.80868C6.79536 7.73691 6.71165 7.63491 6.66222 7.51556C6.61278 7.39622 6.59985 7.2649 6.62505 7.13821C6.65025 7.01151 6.71246 6.89514 6.8038 6.8038C6.89514 6.71245 7.01151 6.65025 7.13821 6.62505C7.2649 6.59985 7.39622 6.61278 7.51557 6.66222C7.63491 6.71165 7.73691 6.79536 7.80868 6.90277C7.88045 7.01017 7.91875 7.13645 7.91875 7.26562C7.91875 7.43884 7.84994 7.60497 7.72745 7.72745C7.60497 7.84994 7.43885 7.91875 7.26563 7.91875Z" fill="black" stroke="black" stroke-width="0.1"/>
<path d="M22.2657 5.10625H22.2656C21.8385 5.10625 21.421 5.2329 21.0659 5.47017C20.7108 5.70745 20.4341 6.04469 20.2706 6.43927C20.1072 6.83384 20.0644 7.26802 20.1477 7.6869C20.2311 8.10578 20.4367 8.49054 20.7387 8.79253C21.0407 9.09453 21.4255 9.30019 21.8444 9.38351C22.2632 9.46683 22.6974 9.42407 23.092 9.26063C23.4866 9.09719 23.8238 8.82042 24.0611 8.46531C24.2984 8.1102 24.425 7.69271 24.425 7.26562V7.26557C24.4244 6.69308 24.1967 6.14421 23.7918 5.7394C23.387 5.33459 22.8382 5.10689 22.2657 5.10625ZM22.2656 7.91875C22.1364 7.91875 22.0102 7.88044 21.9028 7.80868C21.7954 7.73691 21.7117 7.63491 21.6622 7.51556C21.6128 7.39622 21.5999 7.2649 21.6251 7.13821C21.6503 7.01151 21.7125 6.89514 21.8038 6.8038C21.8951 6.71245 22.0115 6.65025 22.1382 6.62505C22.2649 6.59985 22.3962 6.61278 22.5156 6.66222C22.6349 6.71165 22.7369 6.79536 22.8087 6.90277C22.8804 7.01017 22.9188 7.13645 22.9188 7.26562C22.9188 7.43884 22.8499 7.60497 22.7275 7.72745C22.605 7.84994 22.4388 7.91875 22.2656 7.91875Z" fill="black" stroke="black" stroke-width="0.1"/>
<path d="M14.7657 5.10625H14.7656C14.3385 5.10625 13.921 5.2329 13.5659 5.47017C13.2108 5.70745 12.9341 6.04469 12.7706 6.43927C12.6072 6.83384 12.5644 7.26802 12.6477 7.6869C12.7311 8.10578 12.9367 8.49054 13.2387 8.79253C13.5407 9.09453 13.9255 9.30019 14.3444 9.38351C14.7632 9.46683 15.1974 9.42407 15.592 9.26063C15.9866 9.09719 16.3238 8.82042 16.5611 8.46531C16.7984 8.1102 16.925 7.69271 16.925 7.26562V7.26557C16.9244 6.69308 16.6967 6.14421 16.2918 5.7394C15.887 5.33459 15.3382 5.10689 14.7657 5.10625ZM14.7656 7.91875C14.6365 7.91875 14.5102 7.88044 14.4028 7.80868C14.2954 7.73691 14.2117 7.63491 14.1622 7.51556C14.1128 7.39622 14.0998 7.2649 14.1251 7.13821C14.1503 7.01151 14.2125 6.89514 14.3038 6.8038C14.3951 6.71245 14.5115 6.65025 14.6382 6.62505C14.7649 6.59985 14.8962 6.61278 15.0156 6.66222C15.1349 6.71165 15.2369 6.79536 15.3087 6.90277C15.3804 7.01017 15.4188 7.13645 15.4188 7.26562C15.4188 7.43884 15.3499 7.60497 15.2275 7.72745C15.105 7.84994 14.9388 7.91875 14.7656 7.91875Z" fill="black" stroke="black" stroke-width="0.1"/>
<path d="M52.2656 5.10625H44.7656C44.1929 5.10625 43.6437 5.33376 43.2387 5.73872C42.8338 6.14368 42.6062 6.69292 42.6062 7.26562C42.6062 7.83833 42.8338 8.38757 43.2387 8.79253C43.6437 9.19749 44.1929 9.425 44.7656 9.425H52.2656C52.8383 9.425 53.3876 9.19749 53.7925 8.79253C54.1975 8.38757 54.425 7.83833 54.425 7.26562C54.425 6.69292 54.1975 6.14368 53.7925 5.73872C53.3876 5.33376 52.8383 5.10625 52.2656 5.10625ZM52.2656 7.91875H44.7656C44.5924 7.91875 44.4263 7.84994 44.3038 7.72745C44.1813 7.60497 44.1125 7.43884 44.1125 7.26562C44.1125 7.09241 44.1813 6.92628 44.3038 6.8038C44.4263 6.68131 44.5924 6.6125 44.7656 6.6125H52.2656C52.4388 6.6125 52.605 6.68131 52.7275 6.8038C52.8499 6.92628 52.9187 7.09241 52.9187 7.26562C52.9187 7.43884 52.8499 7.60497 52.7275 7.72745C52.605 7.84994 52.4388 7.91875 52.2656 7.91875Z" fill="black" stroke="black" stroke-width="0.1"/>
<path d="M21.2244 38.9037C21.1179 39.0371 21.06 39.2027 21.06 39.3734C21.06 39.544 21.1179 39.7097 21.2244 39.8431L23.8225 43.0998C23.8226 43.0998 23.8226 43.0999 23.8226 43.0999C23.8806 43.1733 23.9234 43.2574 23.9488 43.3474C23.9741 43.4374 23.9814 43.5316 23.9702 43.6244C23.959 43.7173 23.9296 43.8071 23.8836 43.8885C23.8376 43.9698 23.7761 44.0412 23.7025 44.0987C23.5548 44.2087 23.3705 44.2577 23.1877 44.2356C23.0049 44.2135 22.8375 44.1219 22.7203 43.9799C22.7202 43.9798 22.7201 43.9797 22.72 43.9796L19.3985 39.8126L19.3984 39.8125C19.2984 39.6878 19.244 39.5327 19.244 39.3729C19.244 39.2131 19.2984 39.058 19.3984 38.9333L19.3985 38.9332L22.7312 34.755C22.8511 34.6157 23.0197 34.5275 23.2026 34.5087C23.3856 34.4899 23.5688 34.5419 23.7146 34.6541C23.8602 34.7714 23.9534 34.9417 23.9737 35.1276C23.9941 35.3136 23.9398 35.5002 23.8227 35.6462L23.8227 35.6463L21.2244 38.9037ZM21.2244 38.9037L21.2635 38.9349M21.2244 38.9037L21.2244 38.9037L21.2635 38.9349M21.2635 38.9349L23.8617 35.6775L23.7328 44.1385C23.8118 44.0769 23.8778 44.0003 23.9271 43.9131C23.9764 43.8259 24.0079 43.7298 24.0199 43.6304C24.0318 43.531 24.024 43.4302 23.9969 43.3338C23.9698 43.2374 23.9238 43.1473 23.8617 43.0688L21.2635 39.8119C21.1641 39.6873 21.11 39.5327 21.11 39.3734C21.11 39.214 21.1641 39.0594 21.2635 38.9349ZM24.6605 33.4856L24.66 33.4853C24.1995 33.1223 23.6148 32.9547 23.0319 33.0185C22.4491 33.0824 21.9145 33.3726 21.5435 33.8267L21.5431 33.8271L18.2189 37.9951C18.2188 37.9951 18.2188 37.9952 18.2188 37.9952C17.9049 38.3862 17.7338 38.8725 17.7338 39.3738C17.7338 39.8752 17.9049 40.3616 18.2188 40.7525C18.2188 40.7525 18.2188 40.7526 18.2189 40.7526L21.5333 44.9073C21.5333 44.9074 21.5334 44.9075 21.5335 44.9076C21.7124 45.1393 21.9355 45.3331 22.1898 45.478C22.4443 45.6228 22.725 45.7157 23.0157 45.7513C23.3064 45.7868 23.6012 45.7643 23.8831 45.685C24.165 45.6057 24.4283 45.4713 24.6579 45.2894C24.8874 45.1075 25.0785 44.8819 25.2201 44.6256C25.3618 44.3693 25.4511 44.0874 25.483 43.7963C25.5148 43.5052 25.4885 43.2107 25.4057 42.9299C25.3228 42.6491 25.1851 42.3875 25.0004 42.1604C25.0003 42.1603 25.0003 42.1603 25.0002 42.1602L22.7768 39.375L25.0019 36.5871L25.0019 36.5871C25.3665 36.13 25.5353 35.5471 25.4713 34.9659C25.4073 34.3847 25.1158 33.8525 24.6605 33.4856Z" fill="black" stroke="black" stroke-width="0.1"/>
<path d="M34.991 36.5875L34.9911 36.5876L37.2198 39.375L34.9911 42.1562L34.9911 42.1563C34.6263 42.6126 34.4569 43.1947 34.5197 43.7755C34.5826 44.3564 34.8728 44.8887 35.3268 45.2564L35.3272 45.2567C35.7868 45.6209 36.3712 45.7899 36.9542 45.7271C37.5373 45.6643 38.0723 45.3748 38.4438 44.9211L38.4442 44.9206L41.7783 40.7536C41.7783 40.7536 41.7783 40.7535 41.7784 40.7535C42.094 40.3623 42.2661 39.8748 42.2661 39.3722C42.2661 38.8696 42.094 38.3821 41.7784 37.9909C41.7783 37.9909 41.7783 37.9908 41.7783 37.9908L38.4546 33.837C38.4546 33.837 38.4546 33.837 38.4546 33.837C38.274 33.6096 38.0504 33.42 37.7965 33.279C37.5426 33.138 37.2635 33.0484 36.9749 33.0153C36.6864 32.9822 36.3942 33.0062 36.115 33.086C35.8358 33.1658 35.575 33.2999 35.3476 33.4805C35.1201 33.6611 34.9305 33.8847 34.7895 34.1386C34.6485 34.3925 34.5589 34.6716 34.5258 34.9601C34.4927 35.2487 34.5167 35.5409 34.5965 35.8201C34.6763 36.0993 34.8104 36.3601 34.991 36.5875ZM40.6017 39.8124L40.6016 39.8125L37.2599 43.9917C37.14 44.1307 36.9714 44.2185 36.7887 44.2369C36.6058 44.2554 36.4229 44.2031 36.2775 44.0907C36.1318 43.9736 36.0384 43.8036 36.0177 43.6178C35.9971 43.4319 36.0509 43.2453 36.1675 43.099C36.1675 43.099 36.1675 43.099 36.1675 43.099L38.7723 39.8436L38.7723 39.8436C38.8791 39.7101 38.9373 39.5441 38.9373 39.3731C38.9373 39.2021 38.8791 39.0362 38.7723 38.9027L38.7333 38.9339L38.7723 38.9027L36.1584 35.6354C36.1583 35.6354 36.1583 35.6353 36.1582 35.6352C36.043 35.4881 35.9908 35.3011 36.0133 35.1155C36.0358 34.9298 36.1311 34.7607 36.2783 34.6453C36.4255 34.5299 36.6125 34.4777 36.7982 34.5002C36.9839 34.5227 37.153 34.618 37.2684 34.7652L37.2684 34.7652L37.2687 34.7656L40.6016 38.9328L40.6017 38.933C40.7022 39.0575 40.757 39.2127 40.757 39.3727C40.757 39.5327 40.7022 39.6879 40.6017 39.8124Z" fill="black" stroke="black" stroke-width="0.1"/>
<path d="M28.8053 34.7131L28.8052 34.7133L26.8988 43.0276H26.8988L26.8987 43.0279C26.8275 43.3483 26.8276 43.6804 26.8989 44.0008C26.9702 44.3211 27.1111 44.6219 27.3114 44.8819C27.5118 45.1418 27.7668 45.3546 28.0584 45.5051C28.3501 45.6557 28.6712 45.7403 28.9992 45.7531L29 45.7531C29.5093 45.7643 30.0069 45.5995 30.4088 45.2865C30.8107 44.9734 31.0923 44.5313 31.2061 44.0348L31.2061 44.0347L33.1185 35.6835C33.1185 35.6834 33.1185 35.6833 33.1186 35.6832C33.1858 35.4013 33.1955 35.1088 33.1473 34.823C33.099 34.5371 32.9937 34.2639 32.8376 34.0196C32.6815 33.7754 32.4778 33.565 32.2387 33.4012C31.9999 33.2375 31.7306 33.1236 31.4469 33.0661C31.1666 32.9953 30.875 32.9815 30.5894 33.0255C30.3033 33.0696 30.029 33.1708 29.7828 33.323C29.5366 33.4752 29.3235 33.6753 29.1562 33.9115C28.9889 34.1477 28.8707 34.4151 28.8088 34.6979L28.8053 34.7131ZM31.6325 35.4251H31.6332L29.7371 43.6974L29.737 43.6975C29.7009 43.8561 29.6111 43.9974 29.4829 44.0975C29.3548 44.1974 29.1962 44.2502 29.0337 44.2469C28.9298 44.2421 28.8282 44.2148 28.7358 44.1669C28.6432 44.119 28.5622 44.0516 28.4982 43.9693C28.4343 43.887 28.3889 43.7918 28.3653 43.6902C28.3417 43.5889 28.3404 43.4836 28.3614 43.3817C28.3614 43.3816 28.3614 43.3814 28.3615 43.3812L30.2691 35.0582L30.2691 35.0581C30.3105 34.8764 30.4222 34.7184 30.5797 34.6188C30.7373 34.5191 30.9279 34.486 31.1098 34.5265C31.2918 34.567 31.4503 34.6779 31.5507 34.8349C31.6511 34.9919 31.6853 35.1824 31.6457 35.3645L31.6325 35.4251Z" fill="black" stroke="black" stroke-width="0.1"/>
</g>
<defs>
<clipPath id="clip0_30_457">
<rect width="60" height="60" fill="white"/>
</clipPath>
</defs>
</svg>
