<svg width="60" height="60" viewBox="0 0 60 60" fill="none" xmlns="http://www.w3.org/2000/svg">
<path d="M39.9609 25.6641H49.8047C49.9912 25.6641 50.17 25.59 50.3019 25.4581C50.4337 25.3263 50.5078 25.1474 50.5078 24.9609V22.2656C50.5078 22.0791 50.4337 21.9003 50.3019 21.7684C50.17 21.6366 49.9912 21.5625 49.8047 21.5625H39.9609C39.7745 21.5625 39.5956 21.6366 39.4638 21.7684C39.3319 21.9003 39.2578 22.0791 39.2578 22.2656V24.9609C39.2578 25.1474 39.3319 25.3263 39.4638 25.4581C39.5956 25.59 39.7745 25.6641 39.9609 25.6641ZM44.0625 22.9688H49.1016V24.2578H44.0625V22.9688ZM40.6641 22.9688H42.6562V24.2578H40.6641V22.9688Z" fill="black"/>
<path d="M39.9609 31.5234H53.3203C53.5068 31.5234 53.6856 31.4494 53.8175 31.3175C53.9494 31.1856 54.0234 31.0068 54.0234 30.8203V28.125C54.0234 27.9385 53.9494 27.7597 53.8175 27.6278C53.6856 27.496 53.5068 27.4219 53.3203 27.4219H39.9609C39.7745 27.4219 39.5956 27.496 39.4638 27.6278C39.3319 27.7597 39.2578 27.9385 39.2578 28.125V30.8203C39.2578 31.0068 39.3319 31.1856 39.4638 31.3175C39.5956 31.4494 39.7745 31.5234 39.9609 31.5234ZM44.0625 28.8281H52.6172V30.1172H44.0625V28.8281ZM40.6641 28.8281H42.6562V30.1172H40.6641V28.8281Z" fill="black"/>
<path d="M39.9609 37.3828H49.8047C49.9912 37.3828 50.17 37.3087 50.3019 37.1769C50.4337 37.045 50.5078 36.8662 50.5078 36.6797V33.9844C50.5078 33.7979 50.4337 33.6191 50.3019 33.4872C50.17 33.3553 49.9912 33.2812 49.8047 33.2812H39.9609C39.7745 33.2812 39.5956 33.3553 39.4638 33.4872C39.3319 33.6191 39.2578 33.7979 39.2578 33.9844V36.6797C39.2578 36.8662 39.3319 37.045 39.4638 37.1769C39.5956 37.3087 39.7745 37.3828 39.9609 37.3828ZM44.0625 34.6875H49.1016V35.9766H44.0625V34.6875ZM40.6641 34.6875H42.6562V35.9766H40.6641V34.6875Z" fill="black"/>
<path d="M39.9609 43.2422H52.1484C52.3349 43.2422 52.5138 43.1681 52.6456 43.0362C52.7775 42.9044 52.8516 42.7255 52.8516 42.5391V39.8438C52.8516 39.6573 52.7775 39.4784 52.6456 39.3466C52.5138 39.2147 52.3349 39.1406 52.1484 39.1406H39.9609C39.7745 39.1406 39.5956 39.2147 39.4638 39.3466C39.3319 39.4784 39.2578 39.6573 39.2578 39.8438V42.5391C39.2578 42.7255 39.3319 42.9044 39.4638 43.0362C39.5956 43.1681 39.7745 43.2422 39.9609 43.2422ZM44.0625 40.5469H51.4453V41.8359H44.0625V40.5469ZM40.6641 40.5469H42.6562V41.8359H40.6641V40.5469Z" fill="black"/>
<path d="M10.4804 47.1094H32.4102C32.5056 47.1153 32.6013 47.1006 32.6905 47.066C32.7797 47.0315 32.8603 46.9781 32.9269 46.9094C32.9935 46.8408 33.0444 46.7585 33.0761 46.6683C33.1078 46.578 33.1197 46.482 33.1107 46.3868L31.3881 25.9907C31.3743 25.8181 31.297 25.6568 31.1713 25.5379C31.0455 25.419 30.8801 25.351 30.7071 25.3468L25.6641 25.3125V23.5996C25.6666 22.9483 25.5406 22.3028 25.2931 21.7004C25.0456 21.0979 24.6816 20.5502 24.222 20.0887C23.7623 19.6273 23.2161 19.2611 22.6146 19.0113C22.0131 18.7614 21.3682 18.6328 20.7169 18.6328H20.7145C17.9746 18.6341 15.7031 20.8642 15.7031 23.6038V25.3125H12.2026C12.0275 25.31 11.8579 25.3738 11.7279 25.4912C11.5979 25.6086 11.5172 25.7708 11.5019 25.9453L9.77976 46.4062C9.77169 46.4987 9.78389 46.5919 9.8155 46.6792C9.84712 46.7665 9.89739 46.8458 9.9628 46.9117C10.0303 46.9793 10.1113 47.0318 10.2005 47.0659C10.2897 47.0999 10.3851 47.1148 10.4804 47.1094ZM30.1172 27.0974L31.6172 44.8775L30.1172 43.6657V27.0974ZM30.4206 45.7031H28.3195L29.4094 44.886L30.4206 45.7031ZM28.7109 43.7394L27.1124 44.9384L28.7109 28.6554V43.7394ZM17.1094 23.6036C17.1094 21.639 18.75 20.04 20.7187 20.0391H20.7204C21.1871 20.0395 21.6491 20.1323 22.0799 20.3119C22.5106 20.4915 22.9016 20.7546 23.2303 21.0859C23.5591 21.4171 23.8191 21.8101 23.9954 22.2423C24.1718 22.6744 24.2609 23.1371 24.2578 23.6038V25.3125H17.1094V23.6036ZM12.8491 26.7188H15.7031V28.9743C15.7031 29.1607 15.7772 29.3396 15.9091 29.4714C16.0409 29.6033 16.2198 29.6774 16.4062 29.6774C16.5927 29.6774 16.7716 29.6033 16.9034 29.4714C17.0353 29.3396 17.1094 29.1607 17.1094 28.9743V26.7188H24.2578V28.9743C24.2578 29.1607 24.3319 29.3396 24.4637 29.4714C24.5956 29.6033 24.7745 29.6774 24.9609 29.6774C25.1474 29.6774 25.3263 29.6033 25.4581 29.4714C25.59 29.3396 25.6641 29.1607 25.6641 28.9743V26.7188H27.4439L26.0236 41.1328H11.6317L12.8491 26.7188ZM11.5132 42.5391H25.8855L25.5726 45.7031H11.2452L11.5132 42.5391Z" fill="black"/>
<path d="M54.3902 5H5.60976C4.12196 5 2.69509 5.59103 1.64306 6.64306C0.591026 7.69509 0 9.12196 0 10.6098V50.122C0 51.6098 0.591026 53.0366 1.64306 54.0886C2.69509 55.1407 4.12196 55.7317 5.60976 55.7317H54.3902C55.878 55.7317 57.3049 55.1407 58.3569 54.0886C59.409 53.0366 60 51.6098 60 50.122V10.6098C60 9.12196 59.409 7.69509 58.3569 6.64306C57.3049 5.59103 55.878 5 54.3902 5ZM1.46341 10.632C1.46398 9.5304 1.9003 8.4738 2.67713 7.69281C3.45397 6.91181 4.50822 6.46986 5.60976 6.46341H19.2683V10.4718C19.2701 10.8103 19.2048 11.1458 19.0762 11.459C18.9476 11.7721 18.7583 12.0567 18.5192 12.2962C18.2801 12.5358 17.9959 12.7257 17.683 12.8548C17.3701 12.984 17.0347 13.0499 16.6962 13.0488H1.46341V10.632ZM58.5366 50.0998C58.536 51.2013 58.0997 52.2579 57.3229 53.0389C56.546 53.8199 55.4918 54.2619 54.3902 54.2683H5.60976C4.50822 54.2619 3.45397 53.8199 2.67713 53.0389C1.9003 52.2579 1.46398 51.2013 1.46341 50.0998V14.5122H58.5366V50.0998ZM58.5366 13.0488H19.816C20.4169 12.3254 20.7415 11.4121 20.7317 10.4717V6.46341H54.3902C55.4918 6.46986 56.546 6.91181 57.3229 7.69281C58.0997 8.4738 58.536 9.5304 58.5366 10.632V13.0488Z" fill="black"/>
<path d="M7.30832 9.25537C7.11868 9.25537 6.9333 9.31161 6.77562 9.41696C6.61794 9.52232 6.49505 9.67207 6.42247 9.84727C6.3499 10.0225 6.33091 10.2153 6.36791 10.4013C6.40491 10.5873 6.49623 10.7581 6.63032 10.8922C6.76442 11.0263 6.93526 11.1176 7.12126 11.1546C7.30725 11.1916 7.50004 11.1726 7.67524 11.1C7.85045 11.0275 8.00019 10.9046 8.10555 10.7469C8.21091 10.5892 8.26714 10.4038 8.26714 10.2142C8.26686 9.95999 8.16576 9.71627 7.986 9.53651C7.80625 9.35676 7.56253 9.25565 7.30832 9.25537Z" fill="black"/>
<path d="M11.1435 9.25537C10.9539 9.25537 10.7685 9.31161 10.6108 9.41696C10.4531 9.52232 10.3303 9.67207 10.2577 9.84727C10.1851 10.0225 10.1661 10.2153 10.2031 10.4013C10.2401 10.5873 10.3314 10.7581 10.4655 10.8922C10.5996 11.0263 10.7705 11.1176 10.9565 11.1546C11.1425 11.1916 11.3352 11.1726 11.5104 11.1C11.6857 11.0275 11.8354 10.9046 11.9408 10.7469C12.0461 10.5892 12.1023 10.4038 12.1023 10.2142C12.1021 9.95999 12.001 9.71627 11.8212 9.53651C11.6415 9.35676 11.3977 9.25565 11.1435 9.25537Z" fill="black"/>
<path d="M14.9788 9.25537C14.7892 9.25535 14.6038 9.31156 14.4461 9.41691C14.2884 9.52225 14.1655 9.67199 14.0929 9.84719C14.0203 10.0224 14.0013 10.2152 14.0383 10.4012C14.0753 10.5872 14.1666 10.758 14.3007 10.8922C14.4348 11.0263 14.6056 11.1176 14.7916 11.1546C14.9776 11.1916 15.1704 11.1726 15.3456 11.1001C15.5208 11.0275 15.6706 10.9046 15.776 10.7469C15.8813 10.5892 15.9376 10.4038 15.9376 10.2142C15.9373 9.96001 15.8362 9.71631 15.6565 9.53656C15.4767 9.3568 15.233 9.25568 14.9788 9.25537Z" fill="black"/>
<path d="M5.15625 18.6132C5.34273 18.6132 5.52157 18.5392 5.65343 18.4073C5.7853 18.2754 5.85938 18.0966 5.85938 17.9101V17.4068C5.85938 17.2203 5.7853 17.0415 5.65343 16.9096C5.52157 16.7778 5.34273 16.7037 5.15625 16.7037C4.96977 16.7037 4.79093 16.7778 4.65907 16.9096C4.5272 17.0415 4.45313 17.2203 4.45312 17.4068V17.9101C4.45313 18.0966 4.5272 18.2754 4.65907 18.4073C4.79093 18.5392 4.96977 18.6132 5.15625 18.6132Z" fill="black"/>
<path d="M5.15625 32.3242C5.34273 32.3242 5.52157 32.2501 5.65343 32.1182C5.7853 31.9864 5.85938 31.8075 5.85938 31.621V20.371C5.85938 20.1846 5.7853 20.0057 5.65343 19.8738C5.52157 19.742 5.34273 19.6679 5.15625 19.6679C4.96977 19.6679 4.79093 19.742 4.65907 19.8738C4.5272 20.0057 4.45313 20.1846 4.45312 20.371V31.621C4.45313 31.8075 4.5272 31.9864 4.65907 32.1182C4.79093 32.2501 4.96977 32.3242 5.15625 32.3242Z" fill="black"/>
</svg>
