<svg width="60" height="60" viewBox="0 0 60 60" fill="none" xmlns="http://www.w3.org/2000/svg">
<g clip-path="url(#clip0_30_468)">
<path d="M23.673 42.0471C23.4463 42.0471 23.218 41.9692 23.0317 41.8105L16.6218 36.3525C16.4007 36.164 16.2736 35.8887 16.2736 35.5979C16.2736 35.3077 16.4012 35.0324 16.6218 34.8439L23.0317 29.3859C23.448 29.031 24.0732 29.0813 24.428 29.4975C24.7824 29.9143 24.7326 30.5395 24.3158 30.8938L18.792 35.5979L24.3158 40.302C24.7326 40.6569 24.7824 41.2821 24.428 41.6983C24.2318 41.9288 23.9532 42.0471 23.673 42.0471Z" fill="black"/>
<path d="M36.327 42.0471C36.0467 42.0471 35.7681 41.9288 35.5725 41.6983C35.2176 41.2821 35.2679 40.6569 35.6841 40.302L41.208 35.5979L35.6841 30.8938C35.2679 30.5395 35.2176 29.9143 35.5725 29.4975C35.9268 29.0813 36.5525 29.031 36.9682 29.3859L43.3781 34.8439C43.5993 35.0324 43.7264 35.3077 43.7264 35.5979C43.7264 35.8887 43.5993 36.164 43.3781 36.3525L36.9682 41.8105C36.7819 41.9692 36.5536 42.0471 36.327 42.0471Z" fill="black"/>
<path d="M27.7309 46.1409C27.6629 46.1409 27.5944 46.1337 27.5253 46.1194C26.9902 46.0066 26.6475 45.4809 26.7602 44.9458L30.7551 25.9786C30.8679 25.4435 31.393 25.1008 31.9286 25.2135C32.4637 25.3263 32.8064 25.8514 32.6937 26.3871L28.6988 45.3543C28.6004 45.8209 28.1891 46.1409 27.7309 46.1409Z" fill="black"/>
<path d="M53.3491 56.4744H6.65094C2.98386 56.4744 0 53.4911 0 49.8235V10.1887C0 6.52158 2.98386 3.53772 6.65094 3.53772H53.3491C57.0162 3.53772 60 6.52158 60 10.1887V49.8235C60 53.4911 57.0162 56.4744 53.3491 56.4744ZM6.65094 5.51885C4.07614 5.51885 1.98113 7.61385 1.98113 10.1887V49.8235C1.98113 52.3983 4.07614 54.4933 6.65094 54.4933H53.3491C55.9239 54.4933 58.0189 52.3983 58.0189 49.8235V10.1887C58.0189 7.61385 55.9239 5.51885 53.3491 5.51885H6.65094Z" fill="black"/>
<path d="M59.0094 19.3995H0.990566C0.443323 19.3995 0 18.9562 0 18.409C0 17.8623 0.443323 17.4184 0.990566 17.4184H59.0094C59.5567 17.4184 60 17.8623 60 18.409C60 18.9562 59.5567 19.3995 59.0094 19.3995Z" fill="black"/>
<path d="M16.9247 14.6595C15.1968 14.6595 13.79 13.2527 13.79 11.5247C13.79 9.7962 15.1968 8.38995 16.9247 8.38995C18.6533 8.38995 20.0595 9.7962 20.0595 11.5247C20.0595 13.2527 18.6533 14.6595 16.9247 14.6595ZM16.9247 10.3711C16.2891 10.3711 15.7711 10.8885 15.7711 11.5247C15.7711 12.161 16.2891 12.6784 16.9247 12.6784C17.561 12.6784 18.0784 12.161 18.0784 11.5247C18.0784 10.8885 17.561 10.3711 16.9247 10.3711Z" fill="black"/>
<path d="M7.29327 14.6291C5.56476 14.6291 4.15851 13.2228 4.15851 11.4943C4.15851 9.76581 5.56476 8.35956 7.29327 8.35956C9.02179 8.35956 10.428 9.76581 10.428 11.4943C10.428 13.2228 9.02179 14.6291 7.29327 14.6291ZM7.29327 10.3407C6.65759 10.3407 6.13964 10.8586 6.13964 11.4943C6.13964 12.1306 6.65759 12.648 7.29327 12.648C7.92951 12.648 8.44691 12.1306 8.44691 11.4943C8.44691 10.8586 7.92951 10.3407 7.29327 10.3407Z" fill="black"/>
<path d="M26.5562 14.6893C24.8282 14.6893 23.422 13.2831 23.422 11.5546C23.422 9.8266 24.8282 8.42035 26.5562 8.42035C28.2847 8.42035 29.691 9.8266 29.691 11.5546C29.691 13.2831 28.2847 14.6893 26.5562 14.6893ZM26.5562 10.4009C25.9205 10.4009 25.4031 10.9183 25.4031 11.5546C25.4031 12.1908 25.9205 12.7082 26.5562 12.7082C27.1925 12.7082 27.7098 12.1908 27.7098 11.5546C27.7098 10.9183 27.1925 10.4009 26.5562 10.4009Z" fill="black"/>
</g>
<defs>
<clipPath id="clip0_30_468">
<rect width="60" height="60" fill="white"/>
</clipPath>
</defs>
</svg>
