<svg width="156" height="48" viewBox="0 0 156 48" fill="none" xmlns="http://www.w3.org/2000/svg">
<g clip-path="url(#clip0_30_1228)">
<path d="M81.7372 24L63.6087 42.1362L68.9359 47.5L92.3916 24L68.9359 0.499999L63.6087 5.83729L81.7372 24Z" fill="black"/>
<path d="M50.118 24L31.9896 42.1362L37.3433 47.5L60.7725 24L37.3433 0.499999L31.9896 5.83729L50.118 24Z" fill="black"/>
<path d="M18.1023 24L0.000324337 42.1362L5.32755 47.5L28.7832 24L5.32755 0.499999L0.000325923 5.83729L18.1023 24Z" fill="black"/>
<path d="M145.319 24L127.217 42.1362L132.544 47.5L156 24L132.544 0.499999L127.217 5.83729L145.319 24Z" fill="black"/>
<path d="M113.726 24L95.598 42.1362L100.952 47.5L124.381 24L100.952 0.499999L95.598 5.83729L113.726 24Z" fill="black"/>
</g>
<defs>
<clipPath id="clip0_30_1228">
<rect width="47" height="156" fill="white" transform="translate(156 0.5) rotate(90)"/>
</clipPath>
</defs>
</svg>
